<?xml version="1.0" encoding="UTF-8" standalone="no"?>
<!-- Created with Inkscape (http://www.inkscape.org/) -->
<svg id="svg2" xmlns:rdf="http://www.w3.org/1999/02/22-rdf-syntax-ns#" xmlns="http://www.w3.org/2000/svg" height="1100" width="1100" version="1.0" xmlns:cc="http://creativecommons.org/ns#" xmlns:xlink="http://www.w3.org/1999/xlink" xmlns:dc="http://purl.org/dc/elements/1.1/">
 <defs id="defs4">
  <linearGradient id="linearGradient4085">
   <stop id="stop4087" offset="0"/>
   <stop id="stop4089" stop-opacity="0" offset="1"/>
  </linearGradient>
  <linearGradient id="linearGradient2970">
   <stop id="stop2972" stop-color="#755e40" offset="0"/>
   <stop id="stop2974" stop-color="#979797" offset="1"/>
  </linearGradient>
  <linearGradient id="linearGradient13803">
   <stop id="stop13805" stop-color="#0a0606" offset="0"/>
   <stop id="stop13807" stop-color="#b09898" offset="1"/>
  </linearGradient>
  <linearGradient id="linearGradient2851">
   <stop id="stop2853" stop-color="#ffea00" offset="0"/>
   <stop id="stop2855" stop-color="#ff2c00" offset="1"/>
  </linearGradient>
  <linearGradient id="linearGradient3185">
   <stop id="stop3187" stop-opacity=".19608" offset="0"/>
   <stop id="stop3189" stop-opacity="0" offset="1"/>
  </linearGradient>
  <linearGradient id="linearGradient3762" y2="914.66" xlink:href="#linearGradient3185" gradientUnits="userSpaceOnUse" x2="143.34" gradientTransform="translate(42.299 -94.173)" y1="914.66" x1="57.361"/>
  <linearGradient id="linearGradient4088" y2="919.14" xlink:href="#linearGradient3185" gradientUnits="userSpaceOnUse" y1="919.14" gradientTransform="translate(42.299 -90.173)" x2="762.74" x1="937.96"/>
  <linearGradient id="linearGradient4108" y2="349.29" gradientUnits="userSpaceOnUse" x2="497.36" gradientTransform="translate(42.299 113.83)" y1="693.09" x1="497.36">
   <stop id="stop4104" stop-color="#c3d19a" offset="0"/>
   <stop id="stop4106" stop-color="#869462" offset="1"/>
  </linearGradient>
  <radialGradient id="radialGradient2873" cx="503.68" xlink:href="#linearGradient2851" gradientUnits="userSpaceOnUse" cy="712.49" r="62.367" gradientTransform="matrix(1.4248 .81346 -.74875 1.3115 361.79 -480.58)"/>
  <linearGradient id="linearGradient13568" y2="534.57" xlink:href="#linearGradient3185" gradientUnits="userSpaceOnUse" x2="666.42" gradientTransform="translate(42.299 113.83)" y1="605.02" x1="503.5"/>
  <linearGradient id="linearGradient13593" y2="473.08" xlink:href="#linearGradient3185" gradientUnits="userSpaceOnUse" x2="366.48" gradientTransform="translate(42.299 113.83)" y1="623.17" x1="559.7"/>
  <linearGradient id="linearGradient13830" y2="511.36" xlink:href="#linearGradient13803" gradientUnits="userSpaceOnUse" x2="785.22" gradientTransform="translate(42.299 113.83)" y1="511.36" x1="503.21"/>
  <linearGradient id="linearGradient13834" y2="516.67" xlink:href="#linearGradient13803" gradientUnits="userSpaceOnUse" x2="817.86" gradientTransform="translate(42.299 113.83)" y1="516.67" x1="552.88"/>
  <linearGradient id="linearGradient13853" y2="488.13" xlink:href="#linearGradient13803" gradientUnits="userSpaceOnUse" x2="892.43" gradientTransform="translate(42.299 113.83)" y1="488.13" x1="522.49"/>
  <linearGradient id="linearGradient13946" y2="402.47" xlink:href="#linearGradient13803" gradientUnits="userSpaceOnUse" x2="861.57" gradientTransform="translate(42.299 113.83)" y1="402.47" x1="522.49"/>
  <linearGradient id="linearGradient13965" y2="387.34" xlink:href="#linearGradient13803" gradientUnits="userSpaceOnUse" x2="845.76" gradientTransform="translate(42.299 113.83)" y1="387.34" x1="518.95"/>
  <linearGradient id="linearGradient13980" y2="400.9" xlink:href="#linearGradient13803" gradientUnits="userSpaceOnUse" x2="796.62" gradientTransform="translate(42.299 113.83)" y1="400.9" x1="660.15"/>
  <linearGradient id="linearGradient13997" y2="386.37" xlink:href="#linearGradient13803" gradientUnits="userSpaceOnUse" x2="701.51" gradientTransform="translate(42.299 113.83)" y1="386.37" x1="617.49"/>
  <linearGradient id="linearGradient14022" y2="378.4" xlink:href="#linearGradient13803" gradientUnits="userSpaceOnUse" x2="652.5" gradientTransform="translate(22.299 113.83)" y1="378.4" x1="633.9"/>
  <linearGradient id="linearGradient14024" y2="475.1" xlink:href="#linearGradient13803" gradientUnits="userSpaceOnUse" x2="894.55" gradientTransform="translate(42.299 113.83)" y1="475.1" x1="572.66"/>
  <linearGradient id="linearGradient14026" y2="490.49" xlink:href="#linearGradient13803" gradientUnits="userSpaceOnUse" x2="894.55" gradientTransform="translate(42.299 113.83)" y1="490.49" x1="680.64"/>
  <linearGradient id="linearGradient14028" y2="482.27" xlink:href="#linearGradient13803" gradientUnits="userSpaceOnUse" x2="876.68" gradientTransform="translate(42.299 113.83)" y1="482.27" x1="767.31"/>
  <linearGradient id="linearGradient3310" y2="593.19" xlink:href="#linearGradient13803" gradientUnits="userSpaceOnUse" x2="182.74" gradientTransform="translate(42.299 113.83)" y1="593.19" x1="116.45"/>
  <linearGradient id="linearGradient3326" y2="526.09" xlink:href="#linearGradient13803" gradientUnits="userSpaceOnUse" x2="388.71" gradientTransform="translate(42.299 113.83)" y1="455.85" x1="336.76"/>
  <linearGradient id="linearGradient3341" y2="709.82" xlink:href="#linearGradient13803" gradientUnits="userSpaceOnUse" x2="218.21" gradientTransform="translate(42.299 13.827)" y1="632.82" x1="177.31"/>
  <linearGradient id="linearGradient3366" y2="661.63" xlink:href="#linearGradient13803" gradientUnits="userSpaceOnUse" x2="268.08" gradientTransform="translate(42.299 13.827)" y1="592.67" x1="239.72"/>
  <linearGradient id="linearGradient3396" y2="623.89" xlink:href="#linearGradient13803" gradientUnits="userSpaceOnUse" x2="256.12" gradientTransform="translate(42.299 13.827)" y1="551.3" x1="217.73"/>
  <linearGradient id="linearGradient3407" y2="515.8" xlink:href="#linearGradient13803" gradientUnits="userSpaceOnUse" x2="142.47" gradientTransform="translate(42.299 113.83)" y1="466.58" x1="161.44"/>
  <linearGradient id="linearGradient3440" y2="464.67" xlink:href="#linearGradient13803" gradientUnits="userSpaceOnUse" x2="316.26" gradientTransform="translate(42.299 113.83)" y1="464.67" x1="145.57"/>
  <linearGradient id="linearGradient3460" y2="440.53" xlink:href="#linearGradient13803" gradientUnits="userSpaceOnUse" x2="363.65" gradientTransform="translate(42.299 113.83)" y1="440.53" x1="157.81"/>
  <linearGradient id="linearGradient3477" y2="421.47" xlink:href="#linearGradient13803" gradientUnits="userSpaceOnUse" x2="363.62" gradientTransform="translate(42.299 113.83)" y1="421.47" x1="214.19"/>
  <linearGradient id="linearGradient3503" y2="504.01" xlink:href="#linearGradient13803" gradientUnits="userSpaceOnUse" x2="396.92" gradientTransform="translate(42.299 13.827)" y1="504.01" x1="257.32"/>
  <linearGradient id="linearGradient3524" y2="392.13" xlink:href="#linearGradient13803" gradientUnits="userSpaceOnUse" x2="412.59" gradientTransform="translate(42.299 113.83)" y1="392.13" x1="318.76"/>
  <linearGradient id="linearGradient3536" y2="379.87" xlink:href="#linearGradient13803" gradientUnits="userSpaceOnUse" x2="428.53" gradientTransform="translate(42.299 113.83)" y1="379.87" x1="344.3"/>
  <radialGradient id="radialGradient3777" cx="499.74" gradientUnits="userSpaceOnUse" cy="703.04" r="402.41" gradientTransform="matrix(1.0117 .0099402 -.014273 1.4528 68.296 -325.26)">
   <stop id="stop3785" stop-opacity="0" offset="0"/>
   <stop id="stop3787" stop-color="#bdcc96" stop-opacity=".78431" offset="1"/>
  </radialGradient>
  <linearGradient id="linearGradient2968" y2="352.72" xlink:href="#linearGradient2970" gradientUnits="userSpaceOnUse" x2="576.26" y1="-129.95" x1="571.74"/>
  <radialGradient id="radialGradient8404" xlink:href="#linearGradient2851" gradientUnits="userSpaceOnUse" cy="595.44" cx="488.37" gradientTransform="matrix(-.30032 -.96352 1.598 -.49809 -257.66 1629.2)" r="90.54"/>
  <filter id="filter3664" height="1.3151" width="1.1938" y="-.15753" x="-.096910">
   <feGaussianBlur id="feGaussianBlur3666" stdDeviation="10.982543"/>
  </filter>
  <linearGradient id="linearGradient11807">
   <stop id="stop11809" stop-opacity=".39216" offset="0"/>
   <stop id="stop11811" stop-opacity="0" offset="1"/>
  </linearGradient>
  <linearGradient id="linearGradient11757">
   <stop id="stop11759" stop-color="#ff2c00" offset="0"/>
   <stop id="stop11761" stop-color="#801700" offset="1"/>
  </linearGradient>
  <filter id="filter5794" height="1.6837" width="1.3797" y="-.34186" x="-.18984">
   <feGaussianBlur id="feGaussianBlur5796" stdDeviation="23.373113"/>
  </filter>
  <linearGradient id="linearGradient12503" y2="416.54" xlink:href="#linearGradient2851" gradientUnits="userSpaceOnUse" x2="207.68" gradientTransform="matrix(-.088986 0 0 .16609 533.85 262.88)" y1="255.45" x1="207.68"/>
  <filter id="filter13538" height="1.4784" width="1.4816" y="-.23921" x="-.24080">
   <feGaussianBlur id="feGaussianBlur13540" stdDeviation="2.6668526"/>
  </filter>
  <linearGradient id="linearGradient13542" y2="1198.1" xlink:href="#linearGradient2851" gradientUnits="userSpaceOnUse" x2="1219" gradientTransform="translate(-746.96 -745.44)" y1="988.4" x1="1105.2"/>
  <linearGradient id="linearGradient13546" y2="624.94" xlink:href="#linearGradient2851" gradientUnits="userSpaceOnUse" x2="57.527" gradientTransform="translate(1092 685.39)" y1="496.71" x1="12.741"/>
  <linearGradient id="linearGradient3075" y2="689.2" xlink:href="#linearGradient11757" gradientUnits="userSpaceOnUse" x2="137.92" gradientTransform="translate(42.299 113.83)" y1="525.62" x1="316.25"/>
  <linearGradient id="linearGradient4056" y2="488.13" xlink:href="#linearGradient11757" gradientUnits="userSpaceOnUse" x2="892.43" gradientTransform="translate(42.299 113.83)" y1="488.13" x1="522.49"/>
  <linearGradient id="linearGradient4074" y2="750.46" xlink:href="#linearGradient11807" gradientUnits="userSpaceOnUse" x2="505.84" gradientTransform="translate(42.299 113.83)" y1="485.12" x1="16.681"/>
  <linearGradient id="linearGradient4079" y2="788.02" xlink:href="#linearGradient11807" gradientUnits="userSpaceOnUse" x2="485.32" gradientTransform="translate(42.299 113.83)" y1="496.02" x1="767.99"/>
  <radialGradient id="radialGradient4103" xlink:href="#linearGradient4085" gradientUnits="userSpaceOnUse" cy="223.71" cx="396.67" gradientTransform="matrix(1 0 0 .59996 42.299 214.88)" r="113.17"/>
  <radialGradient id="radialGradient4105" xlink:href="#linearGradient4085" gradientUnits="userSpaceOnUse" cy="313.04" cx="387.61" gradientTransform="matrix(.87577 -.20121 .30749 1.3384 .63681 90.058)" r="113.83"/>
  <radialGradient id="radialGradient4107" xlink:href="#linearGradient4085" gradientUnits="userSpaceOnUse" cy="236.77" cx="649.12" gradientTransform="matrix(.92429 .49962 -.35917 .66446 180.69 -132.23)" r="150.22"/>
  <filter id="filter8440">
   <feGaussianBlur id="feGaussianBlur8442" stdDeviation="14.176562"/>
  </filter>
  <filter id="filter13483">
   <feGaussianBlur id="feGaussianBlur13485" stdDeviation="19.721621"/>
  </filter>
  <linearGradient id="linearGradient3806" y2="218.48" xlink:href="#linearGradient2970" gradientUnits="userSpaceOnUse" x2="604.15" y1="-157.22" x1="428.32"/>
  <linearGradient id="linearGradient3781" y2="392.51" gradientUnits="userSpaceOnUse" x2="460.12" gradientTransform="matrix(.96945 .24528 -.24528 .96945 109.94 -97.724)" y1="394.09" x1="408.94">
   <stop id="stop3770" offset="0"/>
   <stop id="stop3772" stop-opacity="0" offset="1"/>
  </linearGradient>
  <linearGradient id="linearGradient6525" y2="709.28" xlink:href="#linearGradient2970" gradientUnits="userSpaceOnUse" x2="474.68" y1="-129.95" x1="571.74"/>
  <filter id="filter6914">
   <feGaussianBlur id="feGaussianBlur6916" stdDeviation="16.70222"/>
  </filter>
  <linearGradient id="linearGradient9329" y2="287.41" spreadMethod="reflect" gradientUnits="userSpaceOnUse" x2="633.15" gradientTransform="matrix(1.5286 0 .23265 1.0154 -510.59 46.953)" y1="288.94" x1="507.53">
   <stop id="stop3396" stop-color="#797060" offset="0"/>
   <stop id="stop4324" stop-color="#483e28" stop-opacity=".22222" offset=".25"/>
   <stop id="stop4326" stop-color="#665739" stop-opacity=".51111" offset=".375"/>
   <stop id="stop4302" stop-color="#3c3830" stop-opacity="0" offset=".5"/>
   <stop id="stop4322" stop-color="#3c311a" stop-opacity=".25098" offset=".625"/>
   <stop id="stop4304" stop-color="#797060" stop-opacity=".50196" offset=".75"/>
   <stop id="stop4316" stop-color="#5a5448" stop-opacity=".49804" offset=".875"/>
   <stop id="stop4318" stop-color="#3d3930" stop-opacity=".28148" offset=".9375"/>
   <stop id="stop4320" stop-color="#3c3830" stop-opacity=".38824" offset=".96875"/>
   <stop id="stop3398" stop-color="#797060" offset="1"/>
  </linearGradient>
 </defs>
 <metadata id="metadata7">
  <rdf:RDF>
   <cc:Work rdf:about="">
    <dc:format>image/svg+xml</dc:format>
    <dc:type rdf:resource="http://purl.org/dc/dcmitype/StillImage"/>
   </cc:Work>
  </rdf:RDF>
 </metadata>
 <g id="layer9">
  <path id="path5681" fill="none" d="m546.79 658.89l-372.28 112.96"/>
  <path id="path5683" fill="none" d="m546.69 658.75l264.51 148"/>
  <path id="path5685" d="m174.47 771.84c-35.42-22.9-70.44-55.98-74.41-102.2-3.614-96.99 145.19-163.36 257.91-185.86 220.91-47.51 483.31-8.28 581.65 88.36 30.98 30.43 40.47 50.61 40.64 78.34-1.34 45.65-30.68 80.32-68.35 106.77-18.84 13.23-39.99 24.4-61.25 33.86-12.93 5.77-26.11 10.96-39.42 15.81" fill="url(#linearGradient4108)"/>
 </g>
 <g id="layer6" fill-rule="evenodd">
  <path id="path10214" d="m212.91 760.11c11-9.99 23.72-16.84 34.71-26.18 11.57-9.83 26.88-13.16 38.98-21.56 13-9.02 23.03-21.67 34.57-32.54 11.72-11.04 24.81-19.33 37.37-29.12 16.7-13.01 33.95-33.61 44.41-51.74 9.47-16.42 23.04-24.12 33.91-39.51 10.27-14.53 29.24-21.98 40.26-35.19 9.24-11.07 15.02-26.12 20.83-39.79 5.44-12.79 10.39-27.45 21.65-36.75 7.11-5.88 11.77-13.84 26.37-15.14l-1.17 327.74-331.89-0.22z" fill="#483e37"/>
  <path id="path9238" d="m261 745.71c15.24-5.28 41.7-33.17 53.59-43.88 10.5-9.46 43.73-30.09 54.53-39.41 21.17-18.26 20.49-25.14 38.51-46.12 11.66-13.57 21.76-28.78 35.6-40.23 10.43-8.63 21.72-19.03 31.58-28.33 15.83-14.92 30.56-29.75 38.21-50.7 5.72-15.66 33.18-44.02 32.74-33.04l-12.64 314.79-272.12-33.08z" fill="#6c5d53"/>
  <path id="path8265" d="m294.07 735.1c13.97-4.58 24.21-22.94 37.9-28.19 23.98-13.49 34.12-20.22 54.58-38.11 9.12-11.8 29.38-35.72 34.54-50.34 3.9-11.06 22.01-24 32.25-37.25 11.54-9.21 24.27-16.92 34.08-28.12l58.69-66.47 0.36 248.95-252.4-0.47z" fill="#917c6f"/>
  <path id="path5828" d="m546.3 733.33c-45.63-0.07-184.65-1.38-248.05 0.61 16.87-4.36 32.4-15.41 46.55-24.51 15.89-3.55 27.78-15.38 42.33-21.89 13.31-9.15 20.46-24.24 32.3-34.98 10.6-11.77 18.05-26.5 31.69-35.29 12.18-12.42 18.68-29.92 34.18-39.1 17.24-18.4 35.72-35.67 52.63-54.36 4.72-7.38 10.28-13.82 8.37-1.68v211.2z" fill="#ac9d93"/>
  <path id="path3726" d="m546.48 659.12l0.46 204.71-361.15 107.69-11.33-199.69" fill="#efebc0"/>
  <path id="path3191" d="m546.48 658.68c-0.03 62.13-0.13 142.37-0.17 204.5-120.51 35.9-240.75 70.9-361.26 106.8-3.16-59.47-7.79-109.31-10.95-168.78 32.39-10.77 66.28-29.02 97.91-41.83 22.27-7.06 45.84-12.3 66.99-22.53 42.71-16.15 86.33-29.43 129.3-44.82 43.11-16.55 41.66-10.33 78.18-33.34z" fill="#e9ddaf"/>
  <path id="path3552" d="m546.19 689.52c-0.05 64.24 0.62 109.59 0.58 173.83-120.58 35.81-241.17 71.62-361.75 107.43-1.38-25.93-2.76-51.87-4.14-77.81 31.65-2.94 57.67-22.99 87.52-32.05 15.08-4.58 25.12-17.61 39.45-24.17 16.34-7.48 34.26-10.52 48.65-22.59 14.17-11.88 31.91-19.03 47.09-29.86 13.37-9.54 30.85-11.55 42.67-23.87 11.75-12.24 27.97-14.41 41.15-27 22.15-13.81 40.64-23.57 58.78-43.91z" fill="#d3ca9d"/>
  <path id="path5950" d="m546.77 809.11c-0.08 18.08-0.07 36.17-0.16 54.25-120.52 35.65-240.86 71.94-361.39 107.59l-1.04-27.6c28.94-11.79 68.88-27.59 98.89-36.49 34.72-10.31 69-22.25 102.94-35 19.69-7.4 39.71-14.13 58.78-22.84 27.77-12.66 56.78-22.32 85.28-33.11 5.62-2.13 11.45-3.81 16.7-6.8z" fill="#c09a53"/>
  <path id="path2326" d="m547.1 658.28c-55.85 17-120.37 36.71-176.23 53.71 11.72-8.41 31.73-15.54 41.33-27.72 12.47-9.64 22.82-21.3 32.99-33.19 10.55-8.69 16.27-20.16 24.09-31.53 20.83-21.94 41.69-43.91 62.2-66.12 3.88-6.63 9.53-11.71 14.73-17.25" fill="#c8beb7"/>
  <path id="path2323" d="m546.48 560.58c0.15 33.08 0.31 65.35 0.46 98.44-36.09 11.32-72.18 21.56-108.27 32.89 7.4-5.26 14.78-8.87 20.22-16.28 7.78-8.64 14.9-17.84 22.71-26.45 6.36-7.34 9.86-16.56 15.61-24.35 6.38-10.24 14-19.66 22.53-28.18 5.54-5.95 9.43-13.16 14.88-19.18" fill="#d8cec6"/>
  <path id="path2319" d="m523.54 615.81c6.12-6.4 8.6-9.37 13.07-16.24 4.46-6.86 5.94-13.75 9.87-14.89-0.03 62.13-0.13 12.29-0.17 74.41l-57.28 17.41c4.82-5.71 5.55-11.07 10.21-18.5 4.66-7.44 10.22-17.03 14.38-23.71 4.16-6.69 6.6-15 9.92-18.48z" fill="#e7decb"/>
 </g>
 <g id="layer5">
  <path id="path3754" d="m185.22 970.95l-10.72-199.04c-44.15-29.62-65.79-55.78-74.04-96.58l15.75 198.79c4.41 47.7 38.96 75.51 69.01 96.83z" fill="#efebc0"/>
  <path id="path3750" d="m185.22 970.95l-8.84-170.36c-43.8-29.97-62.7-57.73-74.48-109.84l14.31 183.37c4.41 47.7 38.96 75.51 69.01 96.83z" fill="#e9ddaf"/>
  <path id="path3748" d="m185.22 970.95l-3.7-78c-43.8-29.97-61.23-65.86-73.01-117.97l7.7 99.14c4.41 47.7 38.96 75.51 69.01 96.83z" fill="#d3ca9d"/>
  <path id="path3169" d="m185.75 970.95l-1.45-27.5c-43.8-29.97-59.51-57.82-71.29-109.93l3.2 40.6c4.41 47.7 39.5 75.51 69.54 96.83z" fill="#c09a53"/>
 </g>
 <g id="layer7" fill-rule="evenodd">
  <path id="path13548" d="m782.8 790.7c-7.05-13.67-18.1-22-28.44-32.15-11.66-11.45-29.51-29.42-43.56-36.72-13.12-6.82-14.87-17.15-24.32-27.36-11.93-12.89-11.03-17.28-21.68-31.64-8.55-11.53-17.68-25.69-23.02-39.36-6.35-16.22-13.75-37.8-24.96-49.03-11.62-11.64-14.77-23.29-17.52-36.11-3.6-16.76-7.62-33.09-10.38-49.58-2.46-14.69-6.81-28.59-16.81-39.76-6.84-7.64-14.83-12.54-26.31-16.29l1.5 226.63 235.5 131.37z" fill="#483e37"/>
  <path id="path13545" d="m751.58 773.05c-5.37-8.72-16.21-19.51-27.78-27.55-10.94-7.61-18.62-13.36-27.26-24.54-11.98-15.49-29.07-29.95-35.87-45.88-5.5-12.84-16.95-26.98-24.42-38.27-7.01-10.6-9.44-25.96-14.34-37.96-5.39-13.2-11.74-17.17-20.21-29.07-7.19-10.1-8.8-23.49-11.71-35.66-3.31-13.86-8.55-38.28-16.79-50.49-7.65-11.32-13.12-20.14-27.34-21.93l-0.06 197.13 205.78 114.22z" fill="#6c5d53"/>
  <path id="path12573" d="m725.86 758.92c-3.08-9.66-33.97-28.53-42.43-42.1-6.93-11.09-19.84-17.38-25.7-29.29-5.33-10.82-12.81-20.3-21.12-29.19-10.09-10.81-18.17-23.66-21.52-39.06-3.33-15.34-13.63-27.21-21.52-40.24-6.95-11.5-12.23-23.89-16.76-36.24-4.54-12.37-8.59-25.06-13.33-37.22-2.98-7.62-10.02-12.53-17.63-17.81-0.23 99.45-0.21 72.75-0.45 172.2l180.46 98.95z" fill="#917c6f"/>
  <path id="path11599" d="m707.97 748.74c-16-12.44-11.26-9.29-26.39-21.18-16.95-13.31-26.34-24.76-38.95-35.88-14.01-12.35-27-43.85-37.11-60.01-9.57-15.32-10.96-20.16-19.61-36.12-8.9-16.45-21.47-30.57-23.02-50.05-0.67-8.47-10.66-23.3-16.95-30.11 0 90.11-0.18 54.82-0.18 144.94l162.21 88.41z" fill="#ac9d93"/>
  <path id="path4045" d="m805.93 1004.6l-258.83-140.94-1.03-205.19 265.24 148.37" fill="#efebc0"/>
  <path id="path3328" d="m546.45 658.85l-0.54-123.38s12.51 35.11 20.81 47.4c9.73 23.26 5.55 18.48 18.85 41.5 7.85 11.91 17.76 28.42 30.23 46.86 12.47 18.43 36.21 46.69 63.1 61.69" fill="#c8beb7"/>
  <path id="path3326" d="m546.94 658.78l-1.03-97.9c5.6 15.98 11.92 21.81 18.94 37.2 5.8 12.69 12.83 36.23 19.35 48.38 6.52 12.16 8.12 8.25 19.95 29.38 11.86 21.2 8.29 19.84 8.29 19.84" fill="#d8cec6"/>
  <path id="path3908" d="m801.1 824.54c4.17 2.7 4.7 4.92 9.2 7.98-1.75 60.14-2.96 112.28-4.71 172.38-86.43-47.09-172.85-94.22-259.28-141.34 0.11-65.87 0.06-139.03 0.17-204.9 28.86 23.95 34.47 23.44 84.98 57.78 17.16 11.16 34.88 21.3 52.91 30.91 20.77 13.49 41.86 26.47 62.64 39.91 18.46 9.67 35.85 27.2 54.09 37.28z" fill="#e9ddaf"/>
  <path id="path3766" d="m776.37 905.3c10.02 10.21 15.87 16.99 30.13 26.44l-1.03 73.26c-86.35-47.26-172.71-94.48-259.07-141.7 0.02-64.28-0.31-104.82-0.3-169.1 14.42 22.29 26.81 20.6 41.58 44.96 14.61 24.11 32.94 45 54.95 61.12 15.71 11.5 29.59 24.9 44.55 37.2 11.84 9.75 24.41 17.59 38.09 24.51 13.65 6.92 23.05 22.01 36.47 31.27 5.2 3.58 10.22 7.54 14.63 12.04z" fill="#d3ca9d"/>
  <path id="path3185" d="m805.47 1004.9c-85.96-46.77-173.12-94.8-259.08-141.61-0.08-18.06-0.11-35.69 0.05-53.76 11.07 9.66 24.87 14.81 37.03 22.74 20.66 13.49 43.55 23.7 63.22 38.37 14.1 10.52 29.35 18.72 43.75 28.65 11.04 7.61 23.8 12.53 34.68 20.59 21.92 16.25 46.31 28.66 69.27 43.28 3.93 2.5 8.42 4.23 12.11 7.09" fill="#c09a53"/>
  <path id="path2321" d="m546.31 658.51c0.11-65.88 0.06-7.98 0.17-73.85 12.12 9.34 18.18 32.8 23.49 55.52 5.31 22.73 13.88 25.23 11.5 38.17l-35.16-19.84z" fill="#e7decb"/>
 </g>
 <g id="layer8">
  <path id="path4064" d="m979.48 657.44l-15.3 198.36c-3.37 76.72-90.34 125.26-158.71 149.2l5.81-198.1c79.52-27.78 162.22-77.21 168.2-149.46z" fill="#efebc0"/>
  <path id="path4062" d="m978.41 667.97l-14.23 187.83c-3.37 76.72-90.34 125.26-158.71 149.2l4.17-172.96c81.03-27.9 167.42-92.19 168.77-164.07z" fill="#e9ddaf"/>
  <path id="path4060" d="m972.53 747.42l-8.35 108.38c-3.37 76.72-90.34 125.26-158.71 149.2l1.13-73.55c81.03-27.9 164.58-112.15 165.93-184.03z" fill="#d3ca9d"/>
  <path id="path3542" d="m967.67 809.86l-3.49 45.94c-3.37 76.72-91.34 125.26-159.72 149.2l0.96-34.8c81.02-27.9 160.9-88.46 162.25-160.34z" fill="#c09a53"/>
 </g>
 <g id="layer10">
  <path id="path3752" d="m185.22 970.95l-10.78-199.09c-44.5-29.61-69.12-59.8-74.36-101.83l16.13 204.09c4.41 47.7 38.96 75.51 69.01 96.83z" fill="url(#linearGradient3762)"/>
  <path id="path4058" d="m979.83 652.97l-15.65 202.83c-3.37 76.72-90.34 125.26-158.71 149.2l5.87-198.14c86.3-31.17 164.17-79.52 168.49-153.89z" fill="url(#linearGradient4088)"/>
  <path id="path3764" d="m811.27 806.8l-28.47-16.1c-7.05-13.67-18.1-22-28.44-32.15-11.66-11.45-29.51-29.42-43.56-36.72-13.12-6.82-14.87-17.15-24.32-27.36-11.93-12.89-11.03-17.28-21.68-31.64-8.55-11.53-17.68-25.69-23.02-39.36-6.35-16.22-13.75-37.8-24.96-49.03-11.62-11.64-14.77-23.29-17.52-36.11-3.6-16.76-7.62-33.09-10.38-49.58-2.46-14.69-6.81-28.59-16.81-39.76-6.84-7.64-15.83-12.54-26.31-16.29l0.59 225.83-0.22 204.96 259.46 141.51 5.64-198.2z" fill-rule="evenodd" fill="url(#linearGradient13568)"/>
  <path id="path5606" d="m174.44 771.86l38.27-12.29c11-9.99 23.92-16.3 34.91-25.64 11.57-9.83 26.88-13.16 38.98-21.56 13-9.02 23.03-21.67 34.57-32.54 11.72-11.04 24.81-19.33 37.37-29.12 16.7-13.01 33.95-33.61 44.41-51.74 9.47-16.42 23.04-24.12 33.91-39.51 10.27-14.53 29.24-21.98 40.26-35.19 9.24-11.07 15.02-26.12 20.83-39.79 5.44-12.79 10.39-27.45 21.65-36.75 7.11-5.88 11.77-13.84 26.37-15.14l0.5 226.06-0.3 204.82-361.16 107.49-10.57-199.1z" fill-rule="evenodd" fill="url(#linearGradient13593)"/>
 </g>
 <g id="layer1">
  <path id="path13768" d="m936.79 646.43c-2.49 12.15-7.53 29.48-2.12 45.25-26.01-19.55-60.49-16.47-85.3-37.99-27.29-28.15-68.23-27.36-99-49.21-33.71-27.24-79.73-40.69-103.24-79.18-10.3-13.37-24.47-29.46-32.11-39.13 8.45 7.66 11.19 9.39 15.59 12.47 4.53 3.17 55.29 51.54 92.11 63.14 32.04 27.16 67.67 48.27 109.59 55.32 34.91 11.04 66.37 32.71 104.48 29.33z" fill="url(#linearGradient14024)"/>
  <path id="path13828" d="m545.8 432.7c3.96 0.93 6.24 1.77 9.22 2.78 38.89 12.57 49.86 56.22 55.58 91.82 13.9 38.5 41.19 70.04 69.22 98.85 20.76 34.96 45.42 70.87 85.05 85.95 25.72 14.77 48.13 41.11 62.65 66.8-10.94 10.14-28.48 15.58-44.72 11.8-7.05-13.67-18.19-22-28.53-32.15-11.66-11.45-29.51-29.42-43.56-36.72-13.12-6.82-14.86-17.15-24.32-27.36-11.93-12.89-11.03-17.28-21.68-31.64-8.55-11.53-17.68-25.69-23.02-39.36-6.35-16.22-13.74-37.8-24.96-49.03-11.62-11.64-14.76-23.29-17.52-36.11-3.6-16.76-8.32-33.09-11.08-49.58-2.46-14.69-6.11-28.59-16.11-39.76-6.84-7.64-14.74-12.1-26.22-16.29z" fill="url(#linearGradient13830)"/>
  <path id="path13832" d="m860.09 764.15c-17.54 0.86-26.71 8.14-32.57 14.75-14.52-25.69-36.93-52.03-62.65-66.8-39.63-15.08-64.29-50.99-85.05-85.95-28.03-28.81-55.32-60.35-69.22-98.85-2.86-17.8-15.44-54.28-16.77-57.37 2.97 2.61 6.38 8.92 6.38 8.92 21.34 32.17 36.81 71.17 74.12 88.3 27.49 23.59 38.06 67.43 77.06 76.4 44.22 14.55 70.58 55.14 97.89 89.97 4.63 7.41 10.28 21.86 10.81 30.63z" fill="url(#linearGradient13834)"/>
  <path id="path13851" d="m564.85 439.77c16.56 6.18 58.52 54.36 82.28 85.53 23.51 38.49 69.53 51.94 103.24 79.18 30.77 21.85 71.71 21.06 99 49.21 24.81 21.52 59.29 18.44 85.3 37.99-22.5 31.56-45.55 30.25-74.58 72.47-0.53-8.77-6.18-23.22-10.81-30.63-27.31-34.83-53.67-75.42-97.89-89.97-39-8.97-49.57-52.81-77.06-76.4-37.31-17.13-52.78-56.13-74.12-88.3 0 0-3.41-6.31-6.38-8.92-6.74-12.75-16.21-23.43-28.98-30.16z" fill="url(#linearGradient13853)"/>
  <path id="path13766" d="m918.97 608.25c-1.69 9.01 9.92 27.3 17.82 38.18-38.11 3.38-69.57-18.29-104.48-29.33-41.92-7.05-77.55-28.16-109.31-55.25 32.72 22.68 80.54 10.35 112.78 33.89 28.46 10.83 52.89 14.5 83.19 12.51z" fill="url(#linearGradient14026)"/>
  <path id="path13760" d="m903.81 592.83c4.45 3.28 10.76 4.23 15.1 15.42-30.3 1.99-54.67-1.68-83.13-12.51-8.06-5.88-16.88-9.64-26.11-12.32 27.16 7.67 60.69 13.19 94.14 9.41z" fill="url(#linearGradient14028)"/>
  <path id="path13944" d="m888 565.11c-1.65 14.61 11.68 22.55 15.81 27.72-26.88 6.43-98.73-8.16-94.75-9.15-28.56-7.5-61.79-4.91-86.3-21.9-35.41-13.45-63.81-38.86-92.15-63.14-4.4-3.08-7.22-4.89-15.67-12.55-19.52-22.24-39.76-42.46-50.09-46.32 18.79 10.64 14.53 10.52 34.65 25.64 47.86 29.75 94.85 62.33 149.26 79.1 42.02 8.58 116.89 21.99 139.24 20.6z" fill="url(#linearGradient13946)"/>
  <path id="path13963" d="m547.15 433.3l17.7 6.47c18.79 10.64 14.53 10.52 34.65 25.64 47.86 29.75 94.85 62.33 149.26 79.1 42.02 8.58 116.89 21.99 139.24 20.6-23.26-12-52.79-20.3-49.15-39.95-21.81 2.63-50.12 3.22-71.71-0.56-35.78-9.07-73.37-14.55-106.8-30.68-47.93-30.96-80.55-51.29-113.19-60.62z" fill="url(#linearGradient13965)"/>
  <path id="path13758" d="m743.75 502.18c12.31 0.39 70.42 7.85 95.1 22.98-21.81 2.63-50.12 3.22-71.71-0.56-22.53-5.64-42.25-9.14-64.63-15.4l6.59-0.66c11.22-3.78 23.33-3 34.65-6.36z" fill="url(#linearGradient13980)"/>
  <path id="path13756" d="m743.75 502.18c-33.06-1.59-63.14-9.1-69.02-10.98-5.17 1.84-9.16 4.33-14.88 2.54 13.7 6.09 28.1 11.75 42.64 15.45l6.61-0.65c11.22-3.78 23.33-3 34.65-6.36z" fill="url(#linearGradient13997)"/>
  <path id="path14005" d="m654.45 490.13c6.08 0.05 14.05 0.3 20.28 1.07-5.17 1.84-8.72 4.52-14.41 2.72-1.94-1.17-4.49-2.49-5.87-3.79z" fill="url(#linearGradient14022)"/>
  <path id="path3324" d="m158.97 707.24c8.25 27.14 33.18 15.13 54.08 52.87 11-9.99 23.58-16.84 34.57-26.18 11.57-9.83 26.88-13.16 38.98-21.56 13-9.02 23.03-21.67 34.57-32.54 11.72-11.04 24.81-19.33 37.37-29.12 16.7-13.01 33.95-33.61 44.41-51.74 9.47-16.42 23.04-24.12 33.91-39.51 10.27-14.53 29.24-21.98 40.26-35.19 9.24-11.07 15.02-26.12 20.83-39.79 5.44-12.79 10.39-27.45 21.65-36.75 7.11-5.88 11.77-13.84 26.37-15.14-2.9 0.33-3.61-0.15-8.7 1-40.27 12.37-52.45 57.24-80.64 82.31-44.93 32.08-67.26 87.52-116.48 114.45-30.84 20.57-69.5 24.14-98.74 47.55-5.26 4.15-10.76 7.59-16.43 10.5-20.46 10.51-43.26 14.1-66.01 18.84z" fill="url(#linearGradient3326)"/>
  <path id="path3295" d="m158.97 707.24c4.06 7.04 8.32 13.23 13.94 17.93 16.55-12.99 33.86-24.77 52.07-36.77-20.46 10.51-43.26 14.1-66.01 18.84z" fill="url(#linearGradient3310)"/>
  <path id="path3333" d="m132.1 674.01c15.77 11.5 21.45 21 26.87 33.23 22.75-4.74 45.55-8.33 66.01-18.84 5.67-2.91 11.17-6.35 16.43-10.5 19.43-15.55 43.01-22.35 65.7-31.19l-10.96 1.84c-38.42 11.57-78.87 15.05-117.35 26.17-11 1.51-35.6 0.16-46.7-0.71z" fill="url(#linearGradient3341)"/>
  <path id="path3358" d="m154.02 623.1c-2.76 15.51-4.38 31.29-21.92 50.91 11.1 0.87 35.7 2.22 46.7 0.71 38.48-11.12 78.93-14.6 117.35-26.17l11-1.86c11.47-4.47 22.68-9.45 33-16.34 39.35-21.53 61.52-61.29 91.79-92.76l-3.56 1.36c-35.65 15.63-64.74 41.73-92.99 67.5-33.84 20.1-76.01 8.53-111.05 25.45-23.55 7.22-48.47 0.78-70.32-8.8z" fill="url(#linearGradient3366)"/>
  <path id="path13744" d="m175.78 600.3c5.13-3.96 10.86-7.43 12.15-14.6 4.54 1.08 5.56 0.79 10.06 2.04 13.92 4.86 28.61 8.33 43.46 10.09-22.15 0.13-44.06 10.58-65.67 2.47z" fill="url(#linearGradient3407)"/>
  <path id="path3388" d="m175.78 600.3c-6.6 1.89-17.11 11.21-21.76 22.8 21.85 9.58 46.77 16.02 70.32 8.8 35.04-16.92 77.21-5.35 111.05-25.45 28.25-25.77 57.34-51.87 92.99-67.5l3.58-1.38c7.59-7.89 15.68-15.25 24.67-21.67 17.33-15.41 28.6-38.3 43.96-56.47-31.44 22.35-57.07 55.61-94.6 68.35-15.71 11.42-30.92 25.69-47.49 36.55-32.14 28.51-75.41 38.42-117.08 33.49-22.12 0.14-44.03 10.59-65.64 2.48z" fill="url(#linearGradient3396)"/>
  <path id="path3375" d="m200.18 557.97c1.46 14.73-8.3 22.16-12.25 27.73 4.54 1.08 5.56 0.79 10.06 2.04 13.92 4.86 28.61 8.33 43.44 10.09 41.66 4.92 84.93-4.99 117.07-33.5-17.86 11.71-37.3 19.48-60.67 15.51-29.07-3.79-71.12 3.9-97.65-21.87z" fill="url(#linearGradient3440)"/>
  <path id="path13740" d="m256.55 537.54c-15.61 10.69-30.86 21.75-56.37 20.43 26.53 25.77 68.58 18.08 97.65 21.87 23.37 3.97 42.81-3.8 60.66-15.5 16.58-10.87 31.79-25.14 47.4-36.52-37.35 29.47-85.22 27.86-130.46 17.69-6.53-2.06-12.86-4.72-18.88-7.97z" fill="url(#linearGradient3460)"/>
  <path id="path13738" d="m299.69 518.44c-24.47 5.77-31.15 11.84-43.14 19.1 6.02 3.25 12.35 5.91 18.88 7.97 45.24 10.17 93.11 11.78 130.43-17.82-36.47 11.65-69.71-6.01-106.17-9.25z" fill="url(#linearGradient3477)"/>
  <path id="path3495" d="m361.13 503.93c-12.73 9.34-38.21 14.18-61.44 14.51 29.25 2.49 57.22 15.11 86.91 13.08 19.35-1.11 37.06-10.34 52.56-21.39-27.32 10.3-51.84 3.95-78.03-6.2z" fill="url(#linearGradient3503)"/>
  <path id="path3449" d="m470.76 484.02c-28.03 4.88-55.71 9.4-84.1 12.5 17.3 1.6 34.14 8.26 51.71 6.57 5.96-0.67 12.01-2.28 17.01-5.67 5.2-4.38 10.29-8.89 15.38-13.4z" fill="url(#linearGradient3536)"/>
  <path id="path3522" d="m386.66 496.52c-7.01 0.72-13.27 0.19-25.53 7.41 26.19 10.15 50.71 16.5 78 6.23 5.47-3.9-0.02 0.02-0.02 0.02 5.49-3.92 10.8-8.16 15.72-12.3-20.93 12.23-46.7 0.49-68.17-1.36z" fill="url(#linearGradient3524)"/>
 </g>
 <g id="layer13">
  <path id="path3538" d="m557.04 436.03c-5.55-0.5-6.75-3.53-11.24-3.33 11.48 4.19 19.38 8.65 26.22 16.29 10 11.17 13.65 25.07 16.11 39.76 2.76 16.49 7.48 32.82 11.08 49.58 2.76 12.82 5.9 24.47 17.52 36.11 11.22 11.23 18.61 32.81 24.96 49.03 5.34 13.67 14.47 27.83 23.02 39.36 10.65 14.36 9.75 18.75 21.68 31.64 9.46 10.21 11.2 20.54 24.32 27.36 14.05 7.3 31.9 25.27 43.56 36.72 10.34 10.15 21.48 18.48 28.53 32.15 16.24 3.78 33.78-1.66 44.72-11.8 5.86-6.61 15.03-13.89 32.57-14.75 29.03-42.22 52.08-40.91 74.58-72.47-5.41-15.77-0.37-33.1 2.12-45.25-7.9-10.88-19.51-29.17-17.85-38.18-4.37-11.19-10.68-12.14-15.13-15.42-4.13-5.17-17.46-13.11-15.81-27.72-23.26-12-52.79-20.3-49.15-39.95-24.68-15.13-82.79-22.59-95.1-22.98-33.06-1.59-63.14-9.1-69.02-10.98-6.23-0.77-14.01-0.84-20-1.02-37.73-24.38-64.45-41.25-97.69-54.15zm-56.19 23.2c9.67-11.35 20.98-20.9 36.42-25.64 5.09-1.15 5.8-0.67 8.7-1-14.6 1.3-19.26 9.26-26.37 15.14-11.26 9.3-16.21 23.96-21.65 36.75-5.81 13.67-11.59 28.72-20.83 39.79-11.02 13.21-29.99 20.66-40.26 35.19-10.87 15.39-24.44 23.09-33.91 39.51-10.46 18.13-27.71 38.73-44.41 51.74-12.56 9.79-25.65 18.08-37.37 29.12-11.54 10.87-21.57 23.52-34.57 32.54-12.1 8.4-27.41 11.73-38.98 21.56-10.99 9.34-23.51 16.26-34.5 26.25-20.9-37.74-50.73-28.05-54.15-52.94-5.42-12.23-11.1-21.73-26.87-33.23 17.54-19.62 19.16-35.4 21.92-50.91 4.65-11.59 15.16-20.91 21.76-22.8 5.13-3.96 10.86-7.43 12.15-14.6 3.95-5.57 13.71-13 12.25-27.73 25.51 1.32 40.76-9.74 56.37-20.43 11.99-7.26 18.67-13.33 43.14-19.1 23.23-0.33 48.71-5.17 61.44-14.51 12.26-7.22 18.52-6.69 25.53-7.41 28.39-3.1 53.24-7.62 81.53-12.36 10.98-8.01 21.96-16.47 32.66-24.93z" fill="url(#radialGradient3777)"/>
 </g>
 <g id="layer14">
  <g id="g9273" transform="translate(109.17 -90.02)">
   <g id="g9291">
    <path id="path9293" opacity="0.333" d="m180.2 235.98l91.25 398.25h535.38c10.48-26.58 54.96-46.75 108.84-47.78-2.38-20.3-3.72-42.81-3.72-66.53 0-25.11 1.48-48.88 4.13-70.09l-49-213.85h-686.88z" transform="matrix(1.1056 0 0 1 -19.023 0)" filter="url(#filter8440)" fill="url(#linearGradient9329)"/>
   </g>
   <g id="g9295"></g>
  </g>
 </g>
 <g id="layer11" fill-rule="evenodd">
  <path id="path2253" d="m546.49 432.61s-12.13 2.69-12.13 2.69c0 0.12-3.78 2.52-3.78 4.37s3.13 3.41 3.12 6.75c0 3.35 0.6 8.42 0.6 13.03-0.01 4.61 0.57 10.6 0.56 16.25 0 5.65-0.59 10.14-0.59 16.6-0.01 6.45-0.53 12.62-0.53 19.65-0.01 7.03 2.91 16.56 2.9 23.94 0 7.38-0.93 11.82-0.94 19.31 0 7.5-1.58 16.68-1.59 24.06-0.01 7.39-0.27 14.28-0.28 21.32s0.69 14.78 0.69 21.25c-0.01 6.47 1.41 12.11 1.4 17.78 0 5.67-2.15 11.43-2.15 16.06-0.01 4.64 1.06 9.16 1.06 12.53s0.47 4.43 0.47 6.31-1.47 3.57-1.47 3.72c0 2.67-0.91 3.74-0.91 6.41 0 2.64 2.62 10.36 1.75 12.5-2.37 5.88-12.97-7.92-22.72-12.09-12.51-5.37-11.99-9.07-14.56-10.1-1.49-0.6-5.51-3.44-6.32-3.66l-8.8-7.06c-4.05-2.9-4.45-4.92-11.16-6.59 0 0-3 3.19-3 3.19-2.52-0.69-7-5.55-7.78-7.25-1.78-1.04-4.66-0.8-6.78-2.32-2.13-1.51-3.39-3.97-4.47-5.65-1.2 1.38-3.26 3.18-5.25 5.44-2 2.26-3.47 5.29-4.56 6.78-0.56-0.48-3.53-3.81-7.35-5.6-3.81-1.79-8.57-3.34-10.18-4.22-0.78 0.83-2.01 1.8-3.22 2.94s-2.56 2.47-4.07 4.1c-1.38-0.63-5.94-2.56-8.93-4.5-2.99-1.95-4.38-3.19-5.94-3.97l-2.09 1.62-1.04 2.56c-1.28-1.41-3.01-4.26-4.71-5.87-1.71-1.61-4.31-2.71-5.85-3.53l-7.12 6.81-4.25 6.97c-1.66 0-3.55-2.95-5.47-4.94-1.92-1.98-5.71-3.07-6.72-3.15-2.25 2.04 1.54 2.54 4.31 4.46 2.77 1.93 7.38 6 8.6 6.88 1.26-1.66 1.95-5.5 4.46-8 2.52-2.5 5.74-5.21 6.88-6.38 0.53 0.71 2.43 2.17 4.59 3.97 2.17 1.81 4.67 3.45 5.41 4.22l2.06-2 0.97-1.47c2.05 0.98 4.31 2.8 6.94 4.41s5.9 3.39 7.9 4.41c1.29-1.1 1.6-2.65 2.72-3.79 1.13-1.13 1.27-1.56 2.85-2.46 2.62 1.47 6.32 2.34 9.25 3.81 2.92 1.47 8.3 3.44 10.78 5.12 1.38-1.55 1.32-4.77 3.37-7.15 2.06-2.38 3.59-4.05 5.38-5.28 1.19 1.21 2.74 2.6 4.28 4.18 1.54 1.59 5.82 1.88 7.62 2.82 0.95 4.07 6.7 5.48 7.6 7.65 0 0 2.94-3.22 2.94-3.22 1 0.08 2.87 1.67 5.12 2.94 2.29 4.04 2.59 1.88 7.75 5.91 2.2 1.72 5.13 3.78 8.13 5.84 0.33 2.08 15.49 12.36 23.06 17.41 9.28 6.19 18.65 19.19 18.65 20.68 0 4.05-1.92 5.08-2.71 9.07-0.55 2.72-1 9.63-1 12.31 0 4.38 0.09 9.62-0.97 13.87-1.18 4.7-2.41 9.76-2.41 14.69 0 11.35-1.08 10.71-6.87 18.44-4.16 5.55-10 11.91-15.66 16.16-3.78 2.83-6.19 6.27-9.06 9.71-2 2.4-25.15 12.35-28.35 13.63-0.62 0.25 0.34-8.95-0.56-12.59-0.9-3.65-2.19-3.86-2.75-3.16 0.15 4.68 0.23 6.8 0.53 12-0.43 1.71-1.17 9.12-2.19 9.59-2.47 1.16-5.71 3.81-7.78 5.88-1.48 1.48-5.7 4.35-6.47 5.87-1.06 2.14-4.79 7.09-6.96 7.82-2.54 0.84-4.05 6.34-6.85 6.9-2.33 0.47-7.78-3.66-9.87-2.4-0.36 0.21-4.7-6.27-6.6-9.1s-3.1-2.81-5.5-6.65c-1.75-2.81-3.2-7.42-4.59-10.82-0.17 0.77-0.18 2.76 0.91 5.41 1.33 3.26-1.88 4.17 0 8.47 1.87 4.3 5.82 8.22 7.18 11.56 1.37 3.34 3.34 7.01 3.16 7.38-1.37 2.73-2.17 0.94-3.56 3.71-2.35 4.69-7.22 10.97-10.94 14.69-2.83 2.83-5.23 6.33-8.28 9.38-1.37 1.36-3.72 1.63-4.85 3.03-1.71 2.14-3.72 3.67-5.37 5.87-1.56 2.08-2.31 4.88-4.34 6.91-1.57 1.57-5.48 6.15-7.63 7.22-1.89 0.94-5.17-0.32-5.72 1.87-0.65 2.61-0.89 7.73-1.56 8.57l181.81-53.35-1.65-431.34zm-139.16 390.62c0.04-0.17 0.08-0.3 0.12-0.34 0.27-0.21-3.5-5.61-1.65-2.78 0.5 0.76 1.02 1.87 1.53 3.12z" fill="url(#radialGradient8404)"/>
  <path id="path2255" d="m546.14 432.92l-1.19 430.78 127.04 67.06c0-1.14-5.94-5.95-5.94-8.9 0-3.38-2.88-5.8-3.53-9.06-0.61-3.06-1.76-4.08-3.53-6.44-1.94-2.59-5.05-3.72-6.29-6.81-0.66-1.67-0.93-4-0.93-6.22 0-3.03 0.64-7.41-0.91-9.47-1.81-2.42-2.27-3.53-4.44-5.69-2-2-3.67-4.75-4.68-7.28-1.11-2.77-4.04-7.21-5.25-10.25-1.85-4.61-3.68-5.41-6.29-9.31-2.47-3.72-5.86-9.44-9.78-11.78-3.5-2.11-6.98-7.35-10.56-10.04-4.15-3.11-9.33-7.3-13.03-11-2.4-2.4-5.98-3.07-7.28-6.34-0.72-1.78 2.59-14.45 5.5-22.75 0.5-1.44 0.92-2.67 1.34-3.94 1.2-1.72 2.65-3.6 3.75-5.9 1.67-3.5 4.34-5.29 6.31-9.35 1.98-4.06 3.64-10.09 5.69-14.28s4.51-9.21 6.41-13.09 2.61-7.28 4.12-10.41c1.52-3.12 3.54-6.47 4.44-8.4 0.91-1.94 0.78-1.92 0.84-2.22-3.4 5.46-1.74 4.57-4.37 5.93 0.41-0.21 0.26 1.2-0.84 2.63-1.11 1.43-2.05 5.54-5.25 8.59-2.02 1.92-3.37 2.93-5.63 5.75-2.26 2.83-1.42 7.83-3.81 10.85-2.39 3.01-4.04 7.26-6.28 10.12-2.24 2.87-2.21 6.69-4 9.06-0.98 1.3-1.97 3.35-2.85 5.22-1.81-1.88-6-10.33-6.12-7.84-0.13 2.73 3.37 5.56 4.12 8.25 0.76 2.71-2.69 14.46-4.12 15.34-5.74 3.53-12.99-10.52-14.03-12.34-1.85-3.23-1.4-17.06-4-23.56-2.7-6.74-1.57-14.08-4.85-20.63-1.37-2.74-5.53-6.89-5.53-9.78 0-5-0.74-10.52-2.53-15-1.14-2.84 0.81-11.53 0.81-14.69 0-4.41 2.79-10.08 1.91-14.47-0.77-3.82-3.08-8.19-4.88-11.78-0.01-0.02 0.64-2.94 0.63-4.68s-1.18-2.65-1.19-5.88c0-3.23 0.91-7.16 0.91-11.66-0.01-4.49-0.53-9.13-0.53-14.65-0.01-5.53-0.28-11.86-0.28-18.19-0.01-6.33 1.94-14.1 1.93-21 0-6.9-1.31-8.88-1.31-16.12 0-7.25 1.13-19.11 1.13-26.47s-1.47-14.29-1.47-21.53c0-7.25-0.38-14.38-0.38-21.29 0-6.9-0.62-12.32-0.62-18.65s0.43-16.66 0.43-22.19c0.01-5.52 1.54-6.47 1.54-10.97 0-4.49-3.13-11.39-3.13-14.62s4.53-5.26 4.53-7-3.36-3.01-5.03-3.2l-6.72-2.46z" fill="url(#radialGradient2873)"/>
  <path id="path4072" d="m546.49 432.61s-12.13 2.69-12.13 2.69c0 0.12-3.78 2.52-3.78 4.37s3.13 3.41 3.12 6.75c0 3.35 0.6 8.42 0.6 13.03-0.01 4.61 0.57 10.6 0.56 16.25 0 5.65-0.59 10.14-0.59 16.6-0.01 6.45-0.53 12.62-0.53 19.65-0.01 7.03 2.91 16.56 2.9 23.94 0 7.38-0.93 11.82-0.94 19.31 0 7.5-1.58 16.68-1.59 24.06-0.01 7.39-0.27 14.28-0.28 21.32s0.69 14.78 0.69 21.25c-0.01 6.47 1.41 12.11 1.4 17.78 0 5.67-2.15 11.43-2.15 16.06-0.01 4.64 1.06 9.16 1.06 12.53s0.47 4.43 0.47 6.31-1.47 3.57-1.47 3.72c0 2.67-0.91 3.74-0.91 6.41 0 2.64 2.62 10.36 1.75 12.5-2.37 5.88-12.97-7.92-22.72-12.09-12.51-5.37-11.99-9.07-14.56-10.1-1.49-0.6-5.51-3.44-6.32-3.66l-8.8-7.06c-4.05-2.9-4.45-4.92-11.16-6.59 0 0-3 3.19-3 3.19-2.52-0.69-7-5.55-7.78-7.25-1.78-1.04-4.66-0.8-6.78-2.32-2.13-1.51-3.39-3.97-4.47-5.65-1.2 1.38-3.26 3.18-5.25 5.44-2 2.26-3.47 5.29-4.56 6.78-0.56-0.48-3.53-3.81-7.35-5.6-3.81-1.79-8.57-3.34-10.18-4.22-0.78 0.83-2.01 1.8-3.22 2.94s-2.56 2.47-4.07 4.1c-1.38-0.63-5.94-2.56-8.93-4.5-2.99-1.95-4.38-3.19-5.94-3.97l-2.09 1.62-1.04 2.56c-1.28-1.41-3.01-4.26-4.71-5.87-1.71-1.61-4.31-2.71-5.85-3.53l-7.12 6.81-4.25 6.97c-1.66 0-3.55-2.95-5.47-4.94-1.92-1.98-5.71-3.07-6.72-3.15-2.25 2.04 1.54 2.54 4.31 4.46 2.77 1.93 7.38 6 8.6 6.88 1.26-1.66 1.95-5.5 4.46-8 2.52-2.5 5.74-5.21 6.88-6.38 0.53 0.71 2.43 2.17 4.59 3.97 2.17 1.81 4.67 3.45 5.41 4.22l2.06-2 0.97-1.47c2.05 0.98 4.31 2.8 6.94 4.41s5.9 3.39 7.9 4.41c1.29-1.1 1.6-2.65 2.72-3.79 1.13-1.13 1.27-1.56 2.85-2.46 2.62 1.47 6.32 2.34 9.25 3.81 2.92 1.47 8.3 3.44 10.78 5.12 1.38-1.55 1.32-4.77 3.37-7.15 2.06-2.38 3.59-4.05 5.38-5.28 1.19 1.21 2.74 2.6 4.28 4.18 1.54 1.59 5.82 1.88 7.62 2.82 0.95 4.07 6.7 5.48 7.6 7.65 0 0 2.94-3.22 2.94-3.22 1 0.08 2.87 1.67 5.12 2.94 2.29 4.04 2.59 1.88 7.75 5.91 2.2 1.72 5.13 3.78 8.13 5.84 0.33 2.08 15.49 12.36 23.06 17.41 9.28 6.19 18.65 19.19 18.65 20.68 0 4.05-1.92 5.08-2.71 9.07-0.55 2.72-1 9.63-1 12.31 0 4.38 0.09 9.62-0.97 13.87-1.18 4.7-2.41 9.76-2.41 14.69 0 11.35-1.08 10.71-6.87 18.44-4.16 5.55-10 11.91-15.66 16.16-3.78 2.83-6.19 6.27-9.06 9.71-2 2.4-25.15 12.35-28.35 13.63-0.62 0.25 0.34-8.95-0.56-12.59-0.9-3.65-2.19-3.86-2.75-3.16 0.15 4.68 0.23 6.8 0.53 12-0.43 1.71-1.17 9.12-2.19 9.59-2.47 1.16-5.71 3.81-7.78 5.88-1.48 1.48-5.7 4.35-6.47 5.87-1.06 2.14-4.79 7.09-6.96 7.82-2.54 0.84-4.05 6.34-6.85 6.9-2.33 0.47-7.78-3.66-9.87-2.4-0.36 0.21-4.7-6.27-6.6-9.1s-3.1-2.81-5.5-6.65c-1.75-2.81-3.2-7.42-4.59-10.82-0.17 0.77-0.18 2.76 0.91 5.41 1.33 3.26-1.88 4.17 0 8.47 1.87 4.3 5.82 8.22 7.18 11.56 1.37 3.34 3.34 7.01 3.16 7.38-1.37 2.73-2.17 0.94-3.56 3.71-2.35 4.69-7.22 10.97-10.94 14.69-2.83 2.83-5.23 6.33-8.28 9.38-1.37 1.36-3.72 1.63-4.85 3.03-1.71 2.14-3.72 3.67-5.37 5.87-1.56 2.08-2.31 4.88-4.34 6.91-1.57 1.57-5.48 6.15-7.63 7.22-1.89 0.94-5.17-0.32-5.72 1.87-0.65 2.61-0.89 7.73-1.56 8.57l181.81-53.35-1.65-431.34zm-139.16 390.62c0.04-0.17 0.08-0.3 0.12-0.34 0.27-0.21-3.5-5.61-1.65-2.78 0.5 0.76 1.02 1.87 1.53 3.12z" fill="url(#linearGradient4074)"/>
  <path id="path4076" d="m546.14 432.92l-1.19 430.78 127.04 67.06c0-1.14-5.94-5.95-5.94-8.9 0-3.38-2.88-5.8-3.53-9.06-0.61-3.06-1.76-4.08-3.53-6.44-1.94-2.59-5.05-3.72-6.29-6.81-0.66-1.67-0.93-4-0.93-6.22 0-3.03 0.64-7.41-0.91-9.47-1.81-2.42-2.27-3.53-4.44-5.69-2-2-3.67-4.75-4.68-7.28-1.11-2.77-4.04-7.21-5.25-10.25-1.85-4.61-3.68-5.41-6.29-9.31-2.47-3.72-5.86-9.44-9.78-11.78-3.5-2.11-6.98-7.35-10.56-10.04-4.15-3.11-9.33-7.3-13.03-11-2.4-2.4-5.98-3.07-7.28-6.34-0.72-1.78 2.59-14.45 5.5-22.75 0.5-1.44 0.92-2.67 1.34-3.94 1.2-1.72 2.65-3.6 3.75-5.9 1.67-3.5 4.34-5.29 6.31-9.35 1.98-4.06 3.64-10.09 5.69-14.28s4.51-9.21 6.41-13.09 2.61-7.28 4.12-10.41c1.52-3.12 3.54-6.47 4.44-8.4 0.91-1.94 0.78-1.92 0.84-2.22-3.4 5.46-1.74 4.57-4.37 5.93 0.41-0.21 0.26 1.2-0.84 2.63-1.11 1.43-2.05 5.54-5.25 8.59-2.02 1.92-3.37 2.93-5.63 5.75-2.26 2.83-1.42 7.83-3.81 10.85-2.39 3.01-4.04 7.26-6.28 10.12-2.24 2.87-2.21 6.69-4 9.06-0.98 1.3-1.97 3.35-2.85 5.22-1.81-1.88-6-10.33-6.12-7.84-0.13 2.73 3.37 5.56 4.12 8.25 0.76 2.71-2.69 14.46-4.12 15.34-5.74 3.53-12.99-10.52-14.03-12.34-1.85-3.23-1.4-17.06-4-23.56-2.7-6.74-1.57-14.08-4.85-20.63-1.37-2.74-5.53-6.89-5.53-9.78 0-5-0.74-10.52-2.53-15-1.14-2.84 0.81-11.53 0.81-14.69 0-4.41 2.79-10.08 1.91-14.47-0.77-3.82-3.08-8.19-4.88-11.78-0.01-0.02 0.64-2.94 0.63-4.68s-1.18-2.65-1.19-5.88c0-3.23 0.91-7.16 0.91-11.66-0.01-4.49-0.53-9.13-0.53-14.65-0.01-5.53-0.28-11.86-0.28-18.19-0.01-6.33 1.94-14.1 1.93-21 0-6.9-1.31-8.88-1.31-16.12 0-7.25 1.13-19.11 1.13-26.47s-1.47-14.29-1.47-21.53c0-7.25-0.38-14.38-0.38-21.29 0-6.9-0.62-12.32-0.62-18.65s0.43-16.66 0.43-22.19c0.01-5.52 1.54-6.47 1.54-10.97 0-4.49-3.13-11.39-3.13-14.62s4.53-5.26 4.53-7-3.36-3.01-5.03-3.2l-6.72-2.46z" fill="url(#linearGradient4079)"/>
 </g>
 <g id="layer3">
  <path id="path2662" d="m490.89 332.06c7.97-4.21 11.65-16.24 24.31-7.11 1.05 0.92-2.48-29.5-19.62-16.33-5.05 3.89-9.58 15.02-4.69 23.44z" fill-rule="evenodd" transform="matrix(1 0 0 1.0249 42.799 103.39)" filter="url(#filter13538)" fill="url(#linearGradient12503)"/>
  <path id="path4787" d="m482.81 416.54c-89.58-25.38-345.75-115.21-286.73-13.31-11.76 5.53 41.43-207.14 233.96-127.84 56.84 23.41 84.65-13.03 52.77 141.15z" fill-rule="evenodd" transform="matrix(.031725 0 0 .14714 527.63 378.28)" filter="url(#filter5794)" fill="url(#linearGradient13542)"/>
  <path id="path5807" d="m1295 1212.1c-154.7-37.3-207.9 30.9-259.7 98.1-11.7 5.6 34.1-233.6 224.4-149.1 15.8 7.1 68.1 58.9 35.3 51z" fill-rule="evenodd" transform="matrix(.034310 0 0 .11260 512.85 294.03)" filter="url(#filter3664)" fill="url(#linearGradient13546)"/>
  <use id="use13544" xlink:href="#path4787" transform="matrix(-.98475 0 0 1 1078.9 0)" height="1000" width="1000" y="0" x="0"/>
  <use id="use13548" xlink:href="#path5807" transform="matrix(-1.0896 0 0 1 1139.8 0)" height="1000" width="1000" y="0" x="0"/>
  <path id="path3073" d="m286.6 710.37c13-9.02 23.03-21.67 34.57-32.54 11.72-11.04 24.81-17.21 37.37-27.01 18.21-11.16-29.19 9.5-43.84 18.19-26.11 15.47-28.97 9.05-48.78 24.92-34.42 13.22 2.85 36.76 20.68 16.44z" fill="url(#linearGradient3075)"/>
  <path id="path4050" d="m564.85 439.77c16.56 6.18 46.52 50.36 70.28 81.53 32.84 39.82 50.2 37.28 105.24 93.85 63.79 22.87 7.3 21.14 1.09 18.92-33.52-12-35.64-45.33-63.13-68.92-37.31-17.13-56.78-54.13-78.12-86.3 0 0-3.41-6.31-6.38-8.92-6.74-12.75-16.21-23.43-28.98-30.16z" fill="url(#linearGradient4056)"/>
 </g>
 <g id="layer4">
  <path id="use4093" d="m546.03 410.96s122.06-409.58 299.2 28.01" stroke="url(#radialGradient4107)" stroke-width="1.2382px" fill="none"/>
  <path id="path4099" opacity=".8" d="m544.97 433.83c-3.67-53.34-77.34-196-225.34-105.34" stroke="url(#radialGradient4103)" stroke-width="1px" fill="none"/>
  <g id="g10095">
   <path id="path4082" d="m544.97 433.83s-94.79-202.1-222.9 42.87" stroke="url(#radialGradient4105)" stroke-width="1px" fill="none"/>
   <path id="path4109" d="m326.85 482.21c-2.13 2.09-1.35-1.93-4.6-1.93s-3.84 0.79-5.97-1.31c-2.13-2.09-3.85-1.74-3.85-4.93s2.11 0.85 4.24-1.24 4.29 0.55 7.54 0.55c3.26 0 4.24 1.06 6.37 3.15 0.62 6.66-0.06 5.72-3.73 5.71z" fill="#483737"/>
  </g>
  <use id="use4112" opacity=".75" xlink:href="#path4109" transform="matrix(-.38590 0 0 .58957 460.43 38.163)" height="1000" width="1000" y="0" x="0"/>
  <use id="use4114" xlink:href="#path4109" transform="matrix(.039531 -.48507 1.286 .10480 211.77 533.68)" height="1000" width="1000" y="0" x="0"/>
  <use id="use10099" xlink:href="#g10095" transform="matrix(-1.0089 0 0 .53169 1099.8 204.28)" height="1100" width="1100" y="0" x="0"/>
  <use id="use10101" xlink:href="#g10095" transform="matrix(1.6791 -.60468 .21615 1.3774 -442.42 173.97)" height="1100" width="1100" y="0" x="0"/>
  <use id="use10103" xlink:href="#g10095" height="1100" width="1100" y="0" x="0"/>
  <use id="use10105" xlink:href="#use10103" transform="matrix(-.58123 0 0 1.2025 862.52 -71.879)" height="1100" width="1100" y="0" x="0"/>
  <use id="use10107" xlink:href="#path4099" transform="matrix(-.86703 -.56784 -.66811 .20421 1287 649.9)" height="1100" width="1100" y="0" x="0"/>
  <use id="use10109" xlink:href="#use4112" transform="matrix(2.2789 0 0 2.2758 20.549 -186.78)" height="1100" width="1100" y="0" x="0"/>
 </g>
 <g id="layer12">
  <path id="path3804" opacity=".75" d="m515.09 112.98c4.34-12.11 19.04-30.223 23.38-42.335m-44.69 50.395c-2.33-13.06 95.34-32.127 93-45.191m-93.28 40.401c-20.89-6.59-92.44-15.86-113.32-22.456-14.01-8.554 97.32-30.441 83.31-38.996-9.13-11.536-95.6-17.739-104.73-29.275m134.74 90.727c-2.32-13-25.98-31.335-28.3-44.338-9.15-11.564-47.64-20.462-56.8-32.027-14.68-8.968 117.3-25.937 102.61-34.905m-17.51 111.27c-4.52-25.294-30.36-55.923-34.88-81.219-14.2-8.674-105.74-12.015-119.94-20.689-8.34-10.529 177.99-31.724 169.65-42.253-2.07-11.599-4.14-23.199-6.21-34.799m-43.5 97.741c4.72-13.168 30.77-21.002 35.49-34.17-2.22-12.409-4.43-24.819-6.65-37.228-8.96-11.322-68.59-25.312-77.56-36.634m48.72 108.03c8.07-22.523 37.47-39.713 45.54-62.236-8.65-10.93-17.31-21.86-25.96-32.79l-6.03-33.807c4.79-13.378 9.58-26.748 14.37-40.118m17.62 106.72c11.56-12.687 33.48-31.374 45.04-44.06 3.95-11.014 7.89-22.028 11.84-33.045-1.59-8.88-3.17-17.75-4.75-26.63m-42.54 252.11c-2.07-11.6 95.86-29.193 93.79-40.79 3.54-9.858 7.07-19.717 10.6-29.576 10.5-11.521 20.99-23.041 31.49-34.562m-135.88 104.93c15.19-9.58 130.37-25.168 145.56-34.753 12.47-13.687 24.94-27.373 37.4-41.06 4.2-11.706 8.39-23.411 12.59-35.117m-195.55 110.93c8.7-24.281 117.4-54.562 126.1-78.843-7.82-9.876-15.64-19.753-23.46-29.63l-6.24-34.953c4.01-11.182 8.02-22.365 12.02-33.547m17.68 98.13c12.3-13.506 24.61-27.013 36.91-40.519 5.12-14.286 10.24-28.571 15.36-42.857-2.46-13.759-4.91-27.518-7.37-41.278m-44.9 124.65c-4.1-23.002-8.21-46.005-12.32-69.008-13.7-8.367-27.4-16.735-41.1-25.102-6.94-8.77-13.89-17.54-20.83-26.309-2.01-11.261-4.02-22.518-6.03-33.778m67.96 85.189c4.15-11.561 8.29-23.122 12.43-34.684-2.39-13.417-4.79-26.835-7.18-40.255-9.5-12-19-23.99-28.5-35.99m-138.93 255.9c0.51-12.64-20.32-30.617-19.81-43.257m87.81 30.717c-5.16-12.164-20.68-18.324-25.84-30.485m-58.92 50.715c-18.65-2 58.7-14.67 40.05-16.68-13.54-5.34-77.75-13.348-91.29-18.691-10.31-9.253-20.63-18.507-30.95-27.761m82.19 63.132c-5.14-12.1-60.94-26.869-66.07-38.972-10.35-9.276 125.98-26.553 115.64-35.829-14.2-5.602-127.06-11.204-141.26-16.805m91.69 91.606c-9.99-23.54 76.02-57.757 66.02-81.304-13.72-5.418-48.79-16.169-62.52-21.587-9.41-8.445-96.16-11.557-105.58-20.003-4.58-10.797 38.84-24.262 34.26-35.059m133.84 76.649c0.56-13.741-193.56-16.815-193-30.556-4.9-11.551 184.86-33.77 179.96-45.321-10.12-9.083-20.25-18.165-30.37-27.247m43.41 103.12c0.95-23.504-144.77-39.007-143.82-62.511-9.78-8.767 127.12-25.534 117.34-34.302l-13.35-31.47c0.56-13.955 1.12-27.913 1.68-41.863m-105.67 107.64l18.72-44.133c0.47-11.493 0.93-22.987 1.39-34.48-3.5-8.262-7.01-16.532-10.52-24.792m169.27 222.92l-13.74-32.385c0.41-10.288 0.83-20.576 1.24-30.864l17.01-40.076m-4.51 103.32c9.97-12.469 19.94-24.937 29.91-37.405 6.73-15.87 13.47-31.741 20.2-47.612 0.49-12.215 0.99-24.431 1.48-36.646m-51.59 121.66l3.06-76.014c-8.83-7.923-28.03-9.845-36.86-17.768-4.61-10.845-9.21-21.691-13.81-32.536l1.41-35.009m49.26 85.313c6.64-15.662 13.29-31.324 19.94-46.985l1.8-44.723c-5.44-12.808-10.87-25.616-16.31-38.428m-5.43 130.14c-9.09-21.413-28.54-36.825-37.62-58.238-13.25-5.226-26.49-10.452-39.74-15.679-7.84-7.034-66.35-16.735-74.19-23.77-4.45-10.482-8.9-20.964-13.34-31.449m127.27 70.898c0.48-12.064 0.97-24.129 1.45-36.194-5.3-12.49-10.6-24.98-15.9-37.474-10.72-9.62-21.45-19.24-32.18-28.87" transform="matrix(.78057 0 0 .57648 395.35 35.064)" filter="url(#filter13483)" fill="url(#linearGradient3806)"/>
  <path id="path10121" d="m492.03 335.96c9.46-26.42 18.93-52.84 28.39-79.26-8.24-10.42-16.48-20.83-24.72-31.24-2.43-13.58-4.85-27.16-7.27-40.74 3.88-10.84 7.77-21.69 11.65-32.54m20.34 104.52c11.06-12.14 22.12-24.28 33.18-36.42 4.04-11.28 8.08-22.56 12.13-33.85-2.17-12.12-4.33-24.24-6.5-36.37m-38.81 106.64c8.76-24.43 17.51-48.86 26.26-73.28-8.19-10.34-16.37-20.67-24.55-31.01-2.35-13.14-4.7-26.29-7.04-39.43 4.34-12.11 108.68-30.223 113.02-42.335m-81.43 112.78c7.9-8.68 15.81-17.35 23.71-26.03 4.34-12.12 8.68-24.23 13.02-36.35-2.33-13.06 95.34-32.127 93.01-45.191m-129.74 107.57c-17.73-22.39-35.46-44.78-53.18-67.17-20.89-6.59-92.44-15.86-113.32-22.456-14.01-8.554 97.32-30.441 83.31-38.996-9.13-11.536-95.6-17.739-104.73-29.275m134.74 90.727c-2.32-13-25.98-31.335-28.3-44.338-9.15-11.564-47.64-20.462-56.8-32.027-14.68-8.968 117.3-25.937 102.61-34.905m-17.51 111.27c-4.52-25.294-30.36-55.923-34.88-81.219-14.2-8.674-105.74-12.015-119.94-20.689-8.34-10.529 177.99-31.724 169.65-42.253-2.07-11.599-4.14-23.199-6.21-34.799m-43.5 97.741c4.72-13.168 30.77-21.002 35.49-34.17-2.22-12.409-4.43-24.819-6.65-37.228-8.96-11.322-68.59-25.312-77.56-36.634m48.72 108.03c8.07-22.523 37.47-39.713 45.54-62.236-8.65-10.93-17.31-21.86-25.96-32.79l-6.03-33.807c4.79-13.378 9.58-26.748 14.37-40.118m17.62 106.72c11.56-12.687 123.12-31.374 134.67-44.06 3.95-11.014 7.9-22.028 11.84-33.045-1.58-8.88-3.17-17.75-4.75-26.63m-99.24 314.36c18.9-20.75 37.8-41.5 56.71-62.25-2.07-11.6 95.86-29.193 93.79-40.79 3.53-9.858 7.06-19.717 10.59-29.576 10.5-11.521 20.99-23.041 31.49-34.562m-135.87 104.93c15.18-9.58 130.37-25.168 145.55-34.753 12.47-13.687 24.94-27.373 37.41-41.06 4.19-11.706 8.39-23.411 12.58-35.117m-195.54 110.93c8.7-24.281 117.39-54.562 126.09-78.843-7.82-9.876-15.64-19.753-23.46-29.63-2.07-11.651-4.15-23.302-6.23-34.953 4-11.182 8.01-22.365 12.02-33.547m17.67 98.13c12.31-13.506 24.61-27.013 36.92-40.519 5.11-14.286 10.23-28.571 15.35-42.857-2.45-13.759-4.91-27.518-7.37-41.278m-44.9 124.65c-4.1-23.002-8.21-46.005-12.31-69.008-13.7-8.367-27.41-16.735-41.11-25.102-6.94-8.77-13.88-17.54-20.83-26.309-2.01-11.261-4.02-22.518-6.03-33.778m67.97 85.189c4.14-11.561 8.28-23.122 12.42-34.684-2.39-13.417-4.79-26.835-7.18-40.255-9.5-12-19-23.99-28.5-35.99m-191.67 476.66c1.11-27.58 2.22-55.15 3.33-82.72-9.31-8.35-18.62-16.7-27.93-25.06-5.36-12.64-10.72-25.28-16.09-37.92 0.46-11.32 0.91-22.64 1.37-33.95m42.65 96.93c5.98-14.08 11.95-28.15 17.92-42.23 0.48-11.77 0.95-23.55 1.42-35.32-4.78-11.28-9.57-22.57-14.36-33.86m-4.98 111.41c1.03-25.49 2.06-50.98 3.08-76.47-9.24-8.29-18.48-16.58-27.73-24.87-5.19-12.24-10.38-24.47-15.57-36.7 0.51-12.64-20.32-30.617-19.81-43.257m63.11 104.83l12.81-30.18c0.51-12.64 101.02-31.29 101.53-43.93-5.16-12.164-110.32-18.324-115.48-30.485m1.14 104.6l-60.06-53.88c-18.65-2 58.7-14.67 40.05-16.68-13.54-5.34-77.75-13.348-91.29-18.691-10.31-9.253-20.63-18.507-30.95-27.761m82.19 63.132c-5.14-12.1-60.94-26.869-66.07-38.972-10.35-9.276 125.98-26.553 115.64-35.829-14.2-5.602-127.06-11.204-141.26-16.805m91.69 91.606c-9.99-23.54 76.02-57.757 66.02-81.304-13.72-5.418-48.79-16.169-62.52-21.587-9.41-8.445-96.16-11.557-105.58-20.003-4.58-10.797 38.84-24.262 34.26-35.059m133.84 76.649c0.56-13.741-193.56-16.815-193-30.556-4.9-11.551 184.86-33.77 179.96-45.321-10.12-9.083-20.25-18.165-30.37-27.247m43.41 103.12c0.95-23.504-144.77-39.007-143.82-62.511-9.78-8.767 127.12-25.534 117.34-34.302l-13.35-31.47c0.56-13.955 1.12-27.913 1.68-41.863m-105.67 107.64l18.72-44.133c0.47-11.493 0.93-22.987 1.39-34.48-3.5-8.262-7.01-16.532-10.52-24.792m128.27 301.1c10.21-24.06 120.42-54.12 130.63-78.18l-13.74-32.385c0.42-10.288 0.83-20.576 1.24-30.864l17.01-40.076m-4.51 103.32c9.97-12.469 19.94-24.937 29.91-37.405 6.74-15.87 13.47-31.741 20.2-47.612 0.5-12.215 0.99-24.431 1.48-36.646m-51.59 121.66l3.06-76.014c-8.83-7.923-117.66-9.845-126.49-17.768-4.61-10.845-9.21-21.691-13.81-32.536l1.41-35.009m138.89 85.313c6.65-15.662 13.29-31.324 19.94-46.985l1.8-44.723c-5.43-12.808-10.87-25.616-16.3-38.428m-5.44 130.14c-9.08-21.413-118.17-36.825-127.25-58.238-13.25-5.226-26.49-10.452-39.74-15.679-7.84-7.034-66.35-16.735-74.19-23.77-4.45-10.482-8.9-20.964-13.34-31.449m127.27 70.898c0.48-12.064 0.97-24.129 1.45-36.194-5.3-12.49-10.6-24.98-15.9-37.474-10.72-9.62-21.45-19.24-32.18-28.87" transform="matrix(.54528 -.071732 .094677 .71971 247.35 180.54)" filter="url(#filter13483)" fill="url(#linearGradient2968)"/>
  <path id="path3788" opacity=".5" d="m493.5 116.25c-20.89-6.59-92.44-15.86-113.32-22.456-14.01-8.554 97.32-30.441 83.31-38.996-9.13-11.536-95.6-17.739-104.73-29.275m134.74 90.727c-2.32-13-25.98-31.335-28.3-44.338-9.15-11.564-47.64-20.462-56.8-32.027-14.68-8.968 117.3-25.937 102.61-34.905m-17.51 111.27c-4.52-25.294-30.36-55.923-34.88-81.219-14.2-8.674-105.74-12.015-119.94-20.689-8.34-10.529 177.99-31.724 169.65-42.253-2.07-11.599-4.14-23.199-6.21-34.799m-43.5 97.741c4.72-13.168 30.77-21.002 35.49-34.17-2.22-12.409-4.43-24.819-6.65-37.228-8.96-11.322-68.59-25.312-77.56-36.634m48.72 108.03c8.07-22.523 37.47-39.713 45.54-62.236-8.65-10.93-17.31-21.86-25.96-32.79l-6.03-33.807c4.79-13.378 9.58-26.748 14.37-40.118m17.62 106.72c54.66-28.117 123.29-12.293 146.51-77.105-1.58-8.88-3.17-17.75-4.75-26.63m-42.53 252.11c75.99-11.87 90.75-55.405 135.87-104.93m-135.87 104.93c15.18-9.58 130.37-25.168 145.55-34.753 12.47-13.687 24.94-27.373 37.41-41.06 4.19-11.706 8.39-23.411 12.58-35.117m-195.54 110.93c8.7-24.281 117.39-54.562 126.09-78.843-7.82-9.876-15.64-19.753-23.46-29.63m23.46 29.63c12.31-13.506 24.61-27.013 36.92-40.519 5.11-14.286 10.23-28.571 15.35-42.857-2.45-13.759-4.91-27.518-7.37-41.278m-44.9 124.65c5.4-78.117-67.86-84.617-80.28-154.2m73.21 10.25c-9.5-12-19-23.99-28.5-35.99m-228.56 255.9c0.51-12.64-20.32-30.617-19.81-43.257m177.45 30.717c-5.16-12.164-110.32-18.324-115.48-30.485m-58.92 50.715c-18.65-2 58.7-14.67 40.05-16.68-13.54-5.34-77.75-13.348-91.29-18.691-10.31-9.253-20.63-18.507-30.95-27.761m82.19 63.132c-5.14-12.1-60.94-26.869-66.07-38.972-10.35-9.276 125.98-26.553 115.64-35.829-14.2-5.602-127.06-11.204-141.26-16.805m91.69 91.606c-9.99-23.54 76.02-57.757 66.02-81.304-13.72-5.418-48.79-16.169-62.52-21.587-9.41-8.445-96.16-11.557-105.58-20.003-4.58-10.797 38.84-24.262 34.26-35.059m133.84 76.649c0.56-13.741-193.56-16.815-193-30.556-4.9-11.551 184.86-33.77 179.96-45.321-10.12-9.083-20.25-18.165-30.37-27.247m43.41 103.12c0.95-23.504-144.77-39.007-143.82-62.511-9.78-8.767 127.12-25.534 117.34-34.302l-13.35-31.47c0.56-13.955 1.12-27.913 1.68-41.863m-105.67 107.64l18.72-44.133c0.47-11.493 0.93-22.987 1.39-34.48-3.5-8.262-7.01-16.532-10.52-24.792m258.9 222.92c-22.09-46.445-14.73-57.988 4.51-103.33m-4.51 103.33c25.78-26.536 35.82-51.328 50.11-85.017m-50.11 85.017l3.06-76.014c-8.83-7.923-117.66-9.845-126.49-17.768-4.61-10.845-9.21-21.691-13.81-32.536l1.41-35.009m138.89 85.313c25.34-46.022 25.31-83.297 5.44-130.14m-5.44 130.14c-9.08-21.413-118.17-36.825-127.25-58.238-13.25-5.226-26.49-10.452-39.74-15.679-7.84-7.034-66.35-16.735-74.19-23.77-4.45-10.482-8.9-20.964-13.34-31.449m127.27 70.898c0.48-12.064 0.97-24.129 1.45-36.194-5.3-12.49-10.6-24.98-15.9-37.474-10.72-9.62-21.45-19.24-32.18-28.87" transform="matrix(.63991 0 0 .56896 122.1 30.596)" filter="url(#filter13483)" fill="url(#linearGradient2968)"/>
  <path id="path6411" d="m515.09 112.98c4.34-12.11 19.04-30.223 23.38-42.335m-44.69 50.395c-2.33-13.06 95.34-32.127 93-45.191m-93.28 40.401c-20.89-6.59-92.44-15.86-113.32-22.456-14.01-8.554 97.32-30.441 83.31-38.996-9.13-11.536-95.6-17.739-104.73-29.275m134.74 90.727c-2.32-13-25.98-31.335-28.3-44.338-9.15-11.564-47.64-20.462-56.8-32.027-14.68-8.968 117.3-25.937 102.61-34.905m-17.51 111.27c-4.52-25.294-30.36-55.923-34.88-81.219-14.2-8.674-105.74-12.015-119.94-20.689-8.34-10.529 177.99-31.724 169.65-42.253-2.07-11.599-4.14-23.199-6.21-34.799m-43.5 97.741c4.72-13.168 30.77-21.002 35.49-34.17-2.22-12.409-4.43-24.819-6.65-37.228-8.96-11.322-68.59-25.312-77.56-36.634m48.72 108.03c8.07-22.523 37.47-39.713 45.54-62.236-8.65-10.93-17.31-21.86-25.96-32.79l-6.03-33.807c4.79-13.378 9.58-26.748 14.37-40.118m17.62 106.72c11.56-12.687 33.48-31.374 45.04-44.06 3.95-11.014 7.89-22.028 11.84-33.045-1.59-8.88-3.17-17.75-4.75-26.63m-42.54 252.11c-2.07-11.6 95.86-29.193 93.79-40.79 3.54-9.858 7.07-19.717 10.6-29.576 10.5-11.521 20.99-23.041 31.49-34.562m-135.88 104.93c15.19-9.58 130.37-25.168 145.56-34.753 12.47-13.687 24.94-27.373 37.4-41.06 4.2-11.706 8.39-23.411 12.59-35.117m-195.55 110.93c8.7-24.281 117.4-54.562 126.1-78.843-7.82-9.876-15.64-19.753-23.46-29.63l-6.24-34.953c4.01-11.182 8.02-22.365 12.02-33.547m17.68 98.13c12.3-13.506 24.61-27.013 36.91-40.519 5.12-14.286 10.24-28.571 15.36-42.857-2.46-13.759-4.91-27.518-7.37-41.278m-44.9 124.65c-4.1-23.002-8.21-46.005-12.32-69.008-13.7-8.367-27.4-16.735-41.1-25.102-6.94-8.77-13.89-17.54-20.83-26.309-2.01-11.261-4.02-22.518-6.03-33.778m67.96 85.189c4.15-11.561 8.29-23.122 12.43-34.684-2.39-13.417-4.79-26.835-7.18-40.255-9.5-12-19-23.99-28.5-35.99m-138.93 255.9c0.51-12.64-20.32-30.617-19.81-43.257m87.81 30.717c-5.16-12.164-20.68-18.324-25.84-30.485m-58.92 50.715c-18.65-2 58.7-14.67 40.05-16.68-13.54-5.34-77.75-13.348-91.29-18.691-10.31-9.253-20.63-18.507-30.95-27.761m82.19 63.132c-5.14-12.1-60.94-26.869-66.07-38.972-10.35-9.276 125.98-26.553 115.64-35.829-14.2-5.602-127.06-11.204-141.26-16.805m91.69 91.606c-9.99-23.54 76.02-57.757 66.02-81.304-13.72-5.418-48.79-16.169-62.52-21.587-9.41-8.445-96.16-11.557-105.58-20.003-4.58-10.797 38.84-24.262 34.26-35.059m133.84 76.649c0.56-13.741-193.56-16.815-193-30.556-4.9-11.551 184.86-33.77 179.96-45.321-10.12-9.083-20.25-18.165-30.37-27.247m43.41 103.12c0.95-23.504-144.77-39.007-143.82-62.511-9.78-8.767 127.12-25.534 117.34-34.302l-13.35-31.47c0.56-13.955 1.12-27.913 1.68-41.863m-105.67 107.64l18.72-44.133c0.47-11.493 0.93-22.987 1.39-34.48-3.5-8.262-7.01-16.532-10.52-24.792m169.27 222.92l-13.74-32.385c0.41-10.288 0.83-20.576 1.24-30.864l17.01-40.076m-4.51 103.32c9.97-12.469 19.94-24.937 29.91-37.405 6.73-15.87 13.47-31.741 20.2-47.612 0.49-12.215 0.99-24.431 1.48-36.646m-51.59 121.66l3.06-76.014c-8.83-7.923-28.03-9.845-36.86-17.768-4.61-10.845-9.21-21.691-13.81-32.536l1.41-35.009m49.26 85.313c6.64-15.662 13.29-31.324 19.94-46.985l1.8-44.723c-5.44-12.808-10.87-25.616-16.31-38.428m-5.43 130.14c-9.09-21.413-28.54-36.825-37.62-58.238-13.25-5.226-26.49-10.452-39.74-15.679-7.84-7.034-66.35-16.735-74.19-23.77-4.45-10.482-8.9-20.964-13.34-31.449m127.27 70.898c0.48-12.064 0.97-24.129 1.45-36.194-5.3-12.49-10.6-24.98-15.9-37.474-10.72-9.62-21.45-19.24-32.18-28.87" transform="matrix(1 0 0 .94965 462.83 114.41)" filter="url(#filter13483)" fill="url(#linearGradient3806)"/>
  <path id="path6413" d="m492.03 335.96c9.46-26.42 18.93-52.84 28.39-79.26-8.24-10.42-16.48-20.83-24.72-31.24-2.43-13.58-4.85-27.16-7.27-40.74 3.88-10.84 7.77-21.69 11.65-32.54m20.34 104.52c11.06-12.14 22.12-24.28 33.18-36.42 4.04-11.28 8.08-22.56 12.13-33.85-2.17-12.12-4.33-24.24-6.5-36.37m-38.81 106.64c8.76-24.43 17.51-48.86 26.26-73.28-8.19-10.34-16.37-20.67-24.55-31.01-2.35-13.14-4.7-26.29-7.04-39.43 4.34-12.11 108.68-30.223 113.02-42.335m-81.43 112.78c7.9-8.68 15.81-17.35 23.71-26.03 4.34-12.12 8.68-24.23 13.02-36.35-2.33-13.06 95.34-32.127 93.01-45.191m-129.74 107.57c-17.73-22.39-35.46-44.78-53.18-67.17-20.89-6.59-92.44-15.86-113.32-22.456-14.01-8.554 97.32-30.441 83.31-38.996-9.13-11.536-95.6-17.739-104.73-29.275m134.74 90.727c-2.32-13-25.98-31.335-28.3-44.338-9.15-11.564-47.64-20.462-56.8-32.027-14.68-8.968 117.3-25.937 102.61-34.905m-17.51 111.27c-4.52-25.294-30.36-55.923-34.88-81.219-14.2-8.674-105.74-12.015-119.94-20.689-8.34-10.529 177.99-31.724 169.65-42.253-2.07-11.599-4.14-23.199-6.21-34.799m-43.5 97.741c4.72-13.168 30.77-21.002 35.49-34.17-2.22-12.409-4.43-24.819-6.65-37.228-8.96-11.322-68.59-25.312-77.56-36.634m48.72 108.03c8.07-22.523 37.47-39.713 45.54-62.236-8.65-10.93-17.31-21.86-25.96-32.79l-6.03-33.807c4.79-13.378 9.58-26.748 14.37-40.118m17.62 106.72c11.56-12.687 123.12-31.374 134.67-44.06 3.95-11.014 7.9-22.028 11.84-33.045-1.58-8.88-3.17-17.75-4.75-26.63m-99.24 314.36c18.9-20.75 37.8-41.5 56.71-62.25-2.07-11.6 95.86-29.193 93.79-40.79 3.53-9.858 7.06-19.717 10.59-29.576 10.5-11.521 20.99-23.041 31.49-34.562m-135.87 104.93c15.18-9.58 130.37-25.168 145.55-34.753 12.47-13.687 24.94-27.373 37.41-41.06 4.19-11.706 8.39-23.411 12.58-35.117m-195.54 110.93c8.7-24.281 117.39-54.562 126.09-78.843-7.82-9.876-15.64-19.753-23.46-29.63-2.07-11.651-4.15-23.302-6.23-34.953 4-11.182 8.01-22.365 12.02-33.547m17.67 98.13c12.31-13.506 24.61-27.013 36.92-40.519 5.11-14.286 10.23-28.571 15.35-42.857-2.45-13.759-4.91-27.518-7.37-41.278m-44.9 124.65c-4.1-23.002-8.21-46.005-12.31-69.008-13.7-8.367-27.41-16.735-41.11-25.102-6.94-8.77-13.88-17.54-20.83-26.309-2.01-11.261-4.02-22.518-6.03-33.778m67.97 85.189c4.14-11.561 8.28-23.122 12.42-34.684-2.39-13.417-4.79-26.835-7.18-40.255-9.5-12-19-23.99-28.5-35.99m-191.67 476.66c1.11-27.58 2.22-55.15 3.33-82.72-9.31-8.35-18.62-16.7-27.93-25.06-5.36-12.64-10.72-25.28-16.09-37.92 0.46-11.32 0.91-22.64 1.37-33.95m42.65 96.93c5.98-14.08 11.95-28.15 17.92-42.23 0.48-11.77 0.95-23.55 1.42-35.32-4.78-11.28-9.57-22.57-14.36-33.86m-4.98 111.41c1.03-25.49 2.06-50.98 3.08-76.47-9.24-8.29-18.48-16.58-27.73-24.87-5.19-12.24-10.38-24.47-15.57-36.7 0.51-12.64-20.32-30.617-19.81-43.257m63.11 104.83l12.81-30.18c0.51-12.64 101.02-31.29 101.53-43.93-5.16-12.164-110.32-18.324-115.48-30.485m1.14 104.6l-60.06-53.88c-18.65-2 58.7-14.67 40.05-16.68-13.54-5.34-77.75-13.348-91.29-18.691-10.31-9.253-20.63-18.507-30.95-27.761m82.19 63.132c-5.14-12.1-60.94-26.869-66.07-38.972-10.35-9.276 125.98-26.553 115.64-35.829-14.2-5.602-127.06-11.204-141.26-16.805m91.69 91.606c-9.99-23.54 76.02-57.757 66.02-81.304-13.72-5.418-48.79-16.169-62.52-21.587-9.41-8.445-96.16-11.557-105.58-20.003-4.58-10.797 38.84-24.262 34.26-35.059m133.84 76.649c0.56-13.741-193.56-16.815-193-30.556-4.9-11.551 184.86-33.77 179.96-45.321-10.12-9.083-20.25-18.165-30.37-27.247m43.41 103.12c0.95-23.504-144.77-39.007-143.82-62.511-9.78-8.767 127.12-25.534 117.34-34.302l-13.35-31.47c0.56-13.955 1.12-27.913 1.68-41.863m-105.67 107.64l18.72-44.133c0.47-11.493 0.93-22.987 1.39-34.48-3.5-8.262-7.01-16.532-10.52-24.792m128.27 301.1c10.21-24.06 120.42-54.12 130.63-78.18l-13.74-32.385c0.42-10.288 0.83-20.576 1.24-30.864l17.01-40.076m-4.51 103.32c9.97-12.469 19.94-24.937 29.91-37.405 6.74-15.87 13.47-31.741 20.2-47.612 0.5-12.215 0.99-24.431 1.48-36.646m-51.59 121.66l3.06-76.014c-8.83-7.923-117.66-9.845-126.49-17.768-4.61-10.845-9.21-21.691-13.81-32.536l1.41-35.009m138.89 85.313c6.65-15.662 13.29-31.324 19.94-46.985l1.8-44.723c-5.43-12.808-10.87-25.616-16.3-38.428m-5.44 130.14c-9.08-21.413-118.17-36.825-127.25-58.238-13.25-5.226-26.49-10.452-39.74-15.679-7.84-7.034-66.35-16.735-74.19-23.77-4.45-10.482-8.9-20.964-13.34-31.449m127.27 70.898c0.48-12.064 0.97-24.129 1.45-36.194-5.3-12.49-10.6-24.98-15.9-37.474-10.72-9.62-21.45-19.24-32.18-28.87" transform="matrix(1 0 0 .94965 44.832 132.41)" filter="url(#filter6914)" fill="url(#linearGradient6525)"/>
  <path id="path6416" d="m493.5 116.25c-20.89-6.59-92.44-15.86-113.32-22.456-14.01-8.554 97.32-30.441 83.31-38.996-9.13-11.536-95.6-17.739-104.73-29.275m134.74 90.727c-2.32-13-25.98-31.335-28.3-44.338-9.15-11.564-47.64-20.462-56.8-32.027-14.68-8.968 117.3-25.937 102.61-34.905m-17.51 111.27c-4.52-25.294-30.36-55.923-34.88-81.219-14.2-8.674-105.74-12.015-119.94-20.689-8.34-10.529 177.99-31.724 169.65-42.253-2.07-11.599-4.14-23.199-6.21-34.799m-43.5 97.741c4.72-13.168 30.77-21.002 35.49-34.17-2.22-12.409-4.43-24.819-6.65-37.228-8.96-11.322-68.59-25.312-77.56-36.634m48.72 108.03c8.07-22.523 37.47-39.713 45.54-62.236-8.65-10.93-17.31-21.86-25.96-32.79l-6.03-33.807c4.79-13.378 9.58-26.748 14.37-40.118m17.62 106.72c54.66-28.117 123.29-12.293 146.51-77.105-1.58-8.88-3.17-17.75-4.75-26.63m-42.53 252.11c75.99-11.87 90.75-55.405 135.87-104.93m-135.87 104.93c15.18-9.58 130.37-25.168 145.55-34.753 12.47-13.687 24.94-27.373 37.41-41.06 4.19-11.706 8.39-23.411 12.58-35.117m-195.54 110.93c8.7-24.281 117.39-54.562 126.09-78.843-7.82-9.876-15.64-19.753-23.46-29.63m23.46 29.63c12.31-13.506 24.61-27.013 36.92-40.519 5.11-14.286 10.23-28.571 15.35-42.857-2.45-13.759-4.91-27.518-7.37-41.278m-44.9 124.65c5.4-78.117-67.86-84.617-80.28-154.2m73.21 10.25c-9.5-12-19-23.99-28.5-35.99m-228.56 255.9c0.51-12.64-20.32-30.617-19.81-43.257m177.45 30.717c-5.16-12.164-110.32-18.324-115.48-30.485m-58.92 50.715c-18.65-2 58.7-14.67 40.05-16.68-13.54-5.34-77.75-13.348-91.29-18.691-10.31-9.253-20.63-18.507-30.95-27.761m82.19 63.132c-5.14-12.1-60.94-26.869-66.07-38.972-10.35-9.276 125.98-26.553 115.64-35.829-14.2-5.602-127.06-11.204-141.26-16.805m91.69 91.606c-9.99-23.54 76.02-57.757 66.02-81.304-13.72-5.418-48.79-16.169-62.52-21.587-9.41-8.445-96.16-11.557-105.58-20.003-4.58-10.797 38.84-24.262 34.26-35.059m133.84 76.649c0.56-13.741-193.56-16.815-193-30.556-4.9-11.551 184.86-33.77 179.96-45.321-10.12-9.083-20.25-18.165-30.37-27.247m43.41 103.12c0.95-23.504-144.77-39.007-143.82-62.511-9.78-8.767 127.12-25.534 117.34-34.302l-13.35-31.47c0.56-13.955 1.12-27.913 1.68-41.863m-105.67 107.64l18.72-44.133c0.47-11.493 0.93-22.987 1.39-34.48-3.5-8.262-7.01-16.532-10.52-24.792m258.9 222.92c-22.09-46.445-14.73-57.988 4.51-103.33m-4.51 103.33c25.78-26.536 35.82-51.328 50.11-85.017m-50.11 85.017l3.06-76.014c-8.83-7.923-117.66-9.845-126.49-17.768-4.61-10.845-9.21-21.691-13.81-32.536l1.41-35.009m138.89 85.313c25.34-46.022 25.31-83.297 5.44-130.14m-5.44 130.14c-9.08-21.413-118.17-36.825-127.25-58.238-13.25-5.226-26.49-10.452-39.74-15.679-7.84-7.034-66.35-16.735-74.19-23.77-4.45-10.482-8.9-20.964-13.34-31.449m127.27 70.898c0.48-12.064 0.97-24.129 1.45-36.194-5.3-12.49-10.6-24.98-15.9-37.474-10.72-9.62-21.45-19.24-32.18-28.87" transform="matrix(1 0 0 .94965 -87.364 80.617)" filter="url(#filter13483)" fill="url(#linearGradient2968)"/>
 </g>
 <g id="layer2">
  <g id="g3777">
   <g id="g5721" transform="translate(-156.7 -35.183)">
    <path id="path2797" opacity=".5" d="m435.31 389.62c8.54 0.38 16.59 2.17 23.65 7.01v0" stroke="url(#linearGradient3781)" stroke-linecap="round" stroke-width=".5" fill="none"/>
    <path id="path2795" d="m428.25 392.64a0.24898 0.24898 0 1 1 -0.5 0 0.24898 0.24898 0 1 1 0.5 0z" transform="matrix(5.375 0 0 5.375 -1868 -1721)" fill="#241c1c"/>
   </g>
   <use id="use5725" xlink:href="#g5721" transform="translate(186.28 36.592)" height="1100" width="1100" y="0" x="0"/>
   <use id="use5727" xlink:href="#g5721" transform="translate(140,-20)" height="1100" width="1100" y="0" x="0"/>
   <use id="use5729" xlink:href="#g5721" transform="matrix(-1.2715 .30931 .23638 .97166 923.19 -79.102)" height="1100" width="1100" y="0" x="0"/>
   <use id="use5731" xlink:href="#use5729" transform="matrix(.97003 -.24299 .81945 .82562 -273.73 178.19)" height="1100" width="1100" y="0" x="0"/>
   <use id="use5733" xlink:href="#use5731" transform="matrix(.74589 -.63433 .64887 .78885 -123.2 434.04)" height="1100" width="1100" y="0" x="0"/>
   <use id="use5735" xlink:href="#use5731" transform="matrix(.84102 .54101 -.54101 .84102 373.89 -296.58)" height="1100" width="1100" y="0" x="0"/>
   <use id="use5737" xlink:href="#g5721" transform="matrix(.96961 -.24466 .24466 .96961 21.341 101.44)" height="1100" width="1100" y="0" x="0"/>
   <use id="use5739" xlink:href="#use5729" transform="matrix(.67536 .73749 -.73749 .67536 531.75 -256.68)" height="1100" width="1100" y="0" x="0"/>
   <use id="use5741" xlink:href="#use5739" transform="matrix(.93005 .36744 -.36744 .93005 177.28 -165.47)" height="1100" width="1100" y="0" x="0"/>
   <use id="use5743" xlink:href="#use5739" transform="translate(200,-60)" height="1100" width="1100" y="0" x="0"/>
   <use id="use5745" xlink:href="#use5743" transform="matrix(.95672 .29101 -.29101 .95672 174.79 -164.92)" height="1100" width="1100" y="0" x="0"/>
   <use id="use5747" xlink:href="#use5745" transform="matrix(.90972 .41523 -.41523 .90972 181.58 -339.19)" height="1100" width="1100" y="0" x="0"/>
   <use id="use5749" xlink:href="#use5731" transform="matrix(.95412 .29944 -.29944 .95412 204.58 -237.53)" height="1100" width="1100" y="0" x="0"/>
   <use id="use5751" xlink:href="#use5727" transform="matrix(.82476 .56548 -.56548 .82476 305.85 -263.17)" height="1100" width="1100" y="0" x="0"/>
   <use id="use5753" xlink:href="#use5727" transform="matrix(.34539 -.93846 .93846 .34539 -76.085 802.94)" height="1100" width="1100" y="0" x="0"/>
   <use id="use5755" xlink:href="#use5753" transform="translate(-140,-20)" height="1100" width="1100" y="0" x="0"/>
   <use id="use5757" opacity=".5" xlink:href="#use5737" transform="matrix(.60407 .79693 -.79693 .60407 567.76 -218.14)" height="1100" width="1100" y="0" x="0"/>
   <use id="use5759" xlink:href="#use5731" transform="matrix(.91272 .40858 -.40858 .91272 365.81 -294.4)" height="1100" width="1100" y="0" x="0"/>
   <use id="use5761" xlink:href="#use5725" transform="matrix(.74184 -.67057 .67057 .74184 -341.59 440.06)" height="1100" width="1100" y="0" x="0"/>
   <use id="use5763" xlink:href="#use5725" transform="matrix(.56279 -.82660 .82660 .56279 -97.989 624.65)" height="1100" width="1100" y="0" x="0"/>
   <use id="use5765" xlink:href="#use5751" transform="matrix(.85957 -.51103 .51103 .85957 -242.36 308.34)" height="1100" width="1100" y="0" x="0"/>
  </g>
 </g>
 <g id="layer15">
  <path id="path11501" d="m439.44 660.14l-159.26 299.01" stroke="#000" stroke-width="1.5" fill="none"/>
  <path id="use12472" d="m545.41 730.05l-143.32 279.15" stroke="#000" stroke-width="1.5" fill="none"/>
  <path id="use12474" d="m544.64 856.69l44.53 152.81" stroke="#000" stroke-width="1.5" fill="none"/>
  <path id="path13449" d="m614.24 761.33l62.93 194.18" stroke="#000" stroke-width="1.5" fill="none"/>
  <path id="use13453" d="m960.17 551.74l-228.2 67.71" stroke="#000" stroke-width="1.5" fill="none"/>
  <path id="use13455" d="m250.96 184.26l270.83 91.5" stroke="#000" stroke-width="1.5" fill="none"/>
  <path id="use13457" d="m177.25 512.84l122.34-32.64" stroke="#000" stroke-width="1.5" fill="none"/>
  <path id="path13461" d="m564.64 416.69l74.4-52.34" stroke="#000" stroke-width="1.5" fill="none"/>
  <path id="use6460" d="m153.94 324.73l106.03 23.93" stroke="#000" stroke-width="1.5" fill="none"/>
  <g id="g5250" transform="translate(59.98 -102.35)">
   <text id="text3958" line-height="100%" y="293.13379" x="167.8147" xml:space="preserve"><tspan id="tspan3960" style="text-anchor:middle;text-align:center" font-size="48px" y="293.13379" x="167.8147" font-family="Arial">1</tspan></text>
  </g>
  <text id="text5239" line-height="100%" y="336.2623" x="129.20796" xml:space="preserve"><tspan id="tspan5241" style="text-anchor:middle;text-align:center" font-size="48px" y="336.2623" x="129.20796" font-family="Arial">2</tspan></text>
  <text id="text5265" xml:space="preserve" y="362.1319" x="662.45441" line-height="100%"><tspan id="tspan5267" style="text-anchor:middle;text-align:center" font-size="48px" y="362.1319" x="662.45441" font-family="Arial">3</tspan></text>
  <text id="text5274" line-height="100%" y="351.9967" x="930.57886" xml:space="preserve"><tspan id="tspan5276" style="text-anchor:middle;text-align:center" font-size="48px" y="351.9967" x="930.57886" font-family="Arial">4</tspan></text>
  <text id="text5412" xml:space="preserve" y="533.24695" x="155.5258" line-height="100%"><tspan id="tspan5421" style="text-anchor:middle;text-align:center" font-size="48px" y="533.24695" x="155.5258" font-family="Arial">5</tspan></text>
  <text id="text5425" line-height="100%" y="561.14099" x="986.44513" xml:space="preserve"><tspan id="tspan5427" style="text-anchor:middle;text-align:center" font-size="48px" y="561.14099" x="986.44513" font-family="Arial">6</tspan></text>
  <text id="text5431" xml:space="preserve" y="1061.5028" x="594.07513" line-height="100%"><tspan id="tspan5433" style="text-anchor:middle;text-align:center" font-size="48px" y="1061.5028" x="594.07513" font-family="Arial">11</tspan></text>
  <text id="text5437" line-height="100%" y="1055.5028" x="394.56412" xml:space="preserve"><tspan id="tspan5439" style="text-anchor:middle;text-align:center" font-size="48px" y="1055.5028" x="394.56412" font-family="Arial">10</tspan></text>
  <text id="text5443" xml:space="preserve" y="1005.7066" x="271.87619" line-height="100%"><tspan id="tspan5445" style="text-anchor:middle;text-align:center" font-size="48px" y="1005.7066" x="271.87619" font-family="Arial">9</tspan></text>
  <text id="text4057" line-height="100%" y="1005.5029" x="680.07513" xml:space="preserve"><tspan id="tspan4059" style="text-anchor:middle;text-align:center" font-size="48px" y="1005.5029" x="680.07513" font-family="Arial">12</tspan></text>
  <path id="path2665" d="m627.3 665.11l378.7 126.47" stroke="#000" stroke-width="1.5" fill="none"/>
  <path id="use2667" d="m196.4 885.92l-106.8 0.74" stroke="#000" stroke-width="1.5" fill="none"/>
  <text id="text2669" line-height="100%" y="813.7066" x="1031.8762" xml:space="preserve"><tspan id="tspan2671" style="text-anchor:middle;text-align:center" font-size="48px" y="813.7066" x="1031.8762" font-family="Arial">7</tspan></text>
  <text id="text2673" xml:space="preserve" y="904.80841" x="70.637466" line-height="100%"><tspan id="tspan2675" style="text-anchor:middle;text-align:center" font-size="48px" y="904.80841" x="70.637466" font-family="Arial">8</tspan></text>
 </g>
</svg>
